<?xml version="1.0" standalone="no"?>
<!DOCTYPE svg PUBLIC "-//W3C//DTD SVG 1.1//EN" "http://www.w3.org/Graphics/SVG/1.1/DTD/svg11.dtd" >
<svg xmlns="http://www.w3.org/2000/svg">
<metadata>
This is a custom SVG webfont generated by Font Squirrel.
Copyright   : 2005 Vic Fieger
</metadata>
<defs>
<font id="webfontJ4OlKjBC" horiz-adv-x="682" >
<font-face units-per-em="2048" ascent="1638" descent="-410" />
<missing-glyph horiz-adv-x="569" />
<glyph unicode=" "  horiz-adv-x="569" />
<glyph unicode="&#x09;" horiz-adv-x="569" />
<glyph unicode="&#xa0;" horiz-adv-x="569" />
<glyph unicode="!" horiz-adv-x="557" d="M-203 1457q0 50 120 66v-10q0 -15 -70 -28l10 -9v-66l-20 -18q-23 65 -40 65zM37 1532l270 47q130 0 130 -84v-19l10 -581l10 -9v-9l-10 -38v-206l-10 -56l10 -47v-28q-71 -57 -80 -140l-220 -28l-10 9l20 159l-30 169l20 37q-60 555 -110 824zM177 147l20 18h50l170 10 l20 -38l10 -355q-57 -19 -250 -19l-20 28v356zM497 -340l60 10v-29h-60v19zM617 1570v37h20l10 -47v-9h-10z" />
<glyph unicode="&#x22;" horiz-adv-x="727" />
<glyph unicode="#" horiz-adv-x="1139" />
<glyph unicode="$" horiz-adv-x="1139" />
<glyph unicode="%" horiz-adv-x="1821" />
<glyph unicode="&#x26;" horiz-adv-x="953" d="M21 -24l30 690l70 60q-31 0 -60 50l20 560q146 170 400 170h20q60 0 60 -40l-10 -130l30 -260l-10 -10h-10q-57 50 -100 50h-50q-82 0 -110 -110v-40q0 -130 140 -130l170 10q280 -106 280 -330v-10l-10 -90q40 -47 40 -190v-50q0 -411 -70 -470h-60q-70 0 -70 120 l-10 10q0 20 -30 20q-140 -70 -270 -70q-238 0 -390 190zM281 316q18 -150 140 -150q162 0 190 210l-60 320h-10l-10 -150v-10l-10 -10v-10l-100 10q-140 0 -140 -150v-60z" />
<glyph unicode="'" horiz-adv-x="352" d="M33 1529l23 40h117l110 10l23 -10v-20l16 -190v-10l-86 -270h-16q-156 0 -156 90zM327 1059v10h46l16 -20l-8 -10h-39z" />
<glyph unicode="(" />
<glyph unicode=")" />
<glyph unicode="*" horiz-adv-x="797" />
<glyph unicode="+" horiz-adv-x="1196" />
<glyph unicode="," horiz-adv-x="569" />
<glyph unicode="-" />
<glyph unicode="." horiz-adv-x="476" d="M75 -188l24 355q66 14 280 -3l20 -30l-35 -354l-25 -17l-55 5l-190 5z" />
<glyph unicode="/" horiz-adv-x="569" />
<glyph unicode="0" horiz-adv-x="1097" d="M-74 -310q27 0 60 399h20v-80l10 -89l-10 -50l10 -10h10l10 10v159h30q0 -27 30 -59l-10 -100q50 -7 50 -30l-20 -20h-60l-30 20l-20 -60h40l70 -20v-20h-60l-20 -20q30 0 30 -20l70 10l540 -30l30 10l180 -10h100v10l-40 60q110 24 110 60l-10 30q80 28 80 50l20 20 l-10 40l20 269l-10 10l10 10h10l10 -10v-80l-10 -10l10 -10v-90l10 -59l-20 -50l10 -10v-10l-10 -10l10 -30h10q20 109 20 339v30h20l-10 -50l10 -50h-10l30 -219h-10l10 -10v-40q-90 -70 -90 -150l10 -10v-10q-10 -90 -70 -90q0 -30 -20 -30h-40q-50 50 -170 50l-10 -10 h-10q-216 40 -450 40h-290l-30 -30q-150 23 -150 50v10zM-44 1329v140l10 10l-10 10v10l10 30l-10 50v30q7 60 30 60l390 -30v-20h-160q-30 -60 -90 -60q-74 0 -100 -20l10 -10v-10q-37 0 -60 -190h-20zM36 1449v20l20 20h10v-40h-30zM46 769q0 285 80 360q54 213 250 330 q99 50 180 50q309 0 440 -490q33 0 60 -220q-30 -6 -30 -70l10 -350l-10 -110l10 -50q-178 -429 -460 -429h-40q-490 101 -490 979zM376 769l30 -240v-140q60 -160 150 -160q130 0 160 180v70l-40 130l40 40v150q0 163 -100 310l-60 20h-30q-82 0 -150 -170l10 -80z M816 1589v20h310l50 -50l-10 -10v-10l10 -10v-10q-38 -180 -60 -180h-10l-10 100h10l-10 30l10 30l-10 10h-10v-40h-10q-60 120 -260 120zM1096 999q146 160 180 160q40 -10 40 -40q-91 -157 -160 -210h-10q-50 40 -50 90z" />
<glyph unicode="1" horiz-adv-x="698" d="M-65 1663l110 73l300 -10h310l30 -32v-41l-20 -21l-20 42h-40v-21h-20q-20 0 -20 31l-50 -10v20l-250 -10q0 -24 -120 -42l-90 -94l-20 84h-20l10 -11v-31h-30q0 21 -30 21zM65 1150q230 84 230 356l30 21h240l30 -21l-10 -105v-63l-10 -324l20 -377v-74l10 -115 q-20 -41 -20 -115v-544l-20 -21h-10l-70 10l-90 -10h-100l-10 10h-10l-20 984l-10 11h-130q-40 0 -50 377zM685 1537v32l160 10q130 0 130 -31l-80 -21l10 -11v-10l-10 -11h-20v32h-90l-70 -11q0 21 -30 21z" />
<glyph unicode="2" horiz-adv-x="1087" d="M-43 218v31q49 72 110 72v-10l-100 -93h-10zM-33 558q201 113 250 113q-100 -58 -100 -103l-60 -62h-20zM17 -204q50 0 50 51l10 93l-50 113v10q120 87 120 155q23 116 390 443q150 123 150 227l-10 196h10l130 10v21q-190 151 -190 226q-24 41 -80 41l-40 42h-40v-21 l50 -10l-10 -72v-11l40 -51l-10 -31l80 -52q0 -17 -140 -41q-75 -134 -100 -134l-280 -41h-30v21q130 546 490 546q292 0 400 -309l60 -196l-10 -72q0 -45 50 -93q-19 -146 -90 -248q-45 -155 -160 -247q-229 -80 -270 -165v-20q104 -145 130 -145l280 21q18 -9 40 -237 l-700 -41l-30 -10l-190 10l-10 10l-10 -10h-30v21zM847 1547v21h60l100 10l10 -10v-52l-20 -20q-13 51 -140 51h-10zM1031 1316l28 25h28v-75z" />
<glyph unicode="3" horiz-adv-x="975" d="M-232 753v60h20v-60h-20zM-142 -76l10 10h10l10 -10v-20h-10zM-142 -126h20l40 -60v-20h-10q-50 25 -50 80zM-122 1553l10 10h190l70 -10v-10l-20 -20h-120l-90 -70v-10l10 -10l-20 -50l10 -40l-10 -10h-10l-10 10v10zM-102 1293v10l10 10h10l10 -10v-10l-10 -10h-10z M-92 -226h20l10 -30l-10 -10h-10zM18 1083q162 430 470 430h40q248 0 360 -240l60 -190q0 -52 -50 -80l10 -70l-30 -310q70 -176 70 -390l-60 -90q-139 -349 -440 -349q-273 0 -420 299v40l260 260q20 0 20 -60q47 -150 130 -150h30q105 0 150 170v10q0 149 -200 170 l-40 260q0 90 200 130q60 66 60 110q0 130 -130 130q-89 0 -160 -110h-150q-180 0 -180 30zM848 -346l50 10h100l-20 20q16 80 40 80l10 -10v-70l-10 -10l10 -10v-20l-40 -40h-30l-10 10h-10q0 -30 -20 -30h-10v20q-44 0 -60 40v10z" />
<glyph unicode="4" horiz-adv-x="1064" d="M-174 1533v20h90q130 0 130 -60l-10 -30h120v-10l-20 -20h-90l-10 -50v-70q0 -30 -60 -30v-10l60 -10v-30h-90l-20 20v10l10 10l-10 10v100l-10 60l10 30q-7 60 -100 60zM-4 1583l10 10l120 -20v-20h-20q-110 0 -110 30zM26 243l10 300v70q0 25 170 270q130 265 200 670 h350q20 0 20 -30l-10 -40l10 -10v-10q-37 -163 -110 -250q0 -108 -270 -540v-30h200v310l20 20h310l30 -20l-20 -310l10 -10l50 10l30 -20l-10 -200v-180q0 -20 -100 -40v-20l-10 -190l10 -60l-10 -30l10 -30l-10 -10v-10l10 -40q-38 -40 -130 -40h-220l-10 10h-10l30 340 q-10 100 -30 100l-460 10h-40l-10 10h-10zM886 1443v20l210 30l40 -20l-10 -100v-110l-10 -40l10 -30l-10 -10v-10l10 -10l-10 -70h-20q0 110 -70 110l-10 10v20h70q0 20 -40 20v20q40 0 40 20q-87 140 -190 140zM986 983v20h20l20 -20v-10h-10zM1116 -117q0 15 40 30v-10 l-20 -20h-20z" />
<glyph unicode="5" horiz-adv-x="919" d="M-242 -340q0 20 30 20h20v-10l70 10h120l60 -10l50 10h40l40 -10l40 10h30v-20l-460 -30q-40 15 -40 30zM-32 110v10q0 18 280 300h10l60 -170q54 -70 120 -70q129 0 150 230v20q-52 200 -150 200q0 -50 -330 -60h-20l-30 30v270l-10 40l10 40v130l10 30l-10 50v340 l30 30h20l360 -10l190 20l130 -110l-10 -100l10 -140l-30 -20l-200 10l-50 -90h-10l-10 10q-130 0 -130 -40l-10 -60l20 -50l180 10q175 0 300 -290q27 0 40 -380q-87 -500 -480 -500h-20q-241 0 -400 320h-20zM718 -300h10q190 0 190 120h20l10 -130l-40 -20l-10 10h-10 l-40 -10l-130 10v20zM808 1010v30l60 -10v-50h-20q0 30 -40 30zM978 1530v20q60 -10 60 -30l-20 -20zM1008 1640l10 30h10v-50z" />
<glyph unicode="6" horiz-adv-x="1092" d="M-139 -262l10 10h10l10 -10v-10l-10 -10h-10l-10 10v10zM-139 335v20h30l20 -20l-10 -10h-10zM-119 1589l50 71h259l40 -10l10 10l119 -10h120v-21h-259l-40 -10l-10 10l-140 -20l-69 10l-20 -40l10 -10v-10l-10 -41l10 -91l-10 -50h-20q0 169 -40 212zM-109 -312l20 20 l10 -10v-10l-20 -21l-10 11v10zM30 648v71l40 223v131l-10 41q0 285 339 394l100 10h80q315 0 408 -354q20 -45 20 -131v-21l-10 -10v-10l-219 10h-60q-33 0 -40 142q-39 50 -159 50h-10q-150 0 -150 -202q0 -155 220 -192q438 -126 438 -273q24 0 40 -162v-101 q0 -347 -379 -465l-159 -20q-260 0 -299 141q-190 568 -190 728zM349 314q0 -160 190 -182q189 30 189 182v11q0 212 -159 212h-30q-134 0 -180 -121l-10 -41v-61zM549 1640v20l99 10h20l369 10l10 -10v-10l-20 -20h-478zM1007 -211h50v-30h-50v30zM1077 -221l10 10h10 l20 -20l-10 -10h-10z" />
<glyph unicode="7" horiz-adv-x="869" d="M8 -78q276 755 460 1050q23 80 100 170v20h-100l-60 -10l-10 10l-340 -20l-20 80v30l-10 270l10 10l260 -10l500 20l20 -20l-10 -220v-50l10 -50l10 10h20v-10q0 -49 -190 -460q-160 -353 -160 -680l-150 -220v-10h120l20 -20v-10l-20 -20h-240l-200 -10l-20 60v90z M8 732v10l20 20q50 0 90 -50v-20h-70zM778 1682v10l10 10h10v-10l10 10h10q120 -23 120 -50l-20 -20h-50q-32 40 -80 40z" />
<glyph unicode="8" horiz-adv-x="1060" d="M-134 775v10q0 36 150 70l10 10l10 -10v-10l-60 -40q0 -20 30 -20v-20l-70 10h-70zM-94 615l10 10l140 -20v10q1 16 140 90l30 80q-190 169 -190 350q0 215 180 360q15 -40 30 -40q119 90 300 90q336 0 450 -320l30 -210q-46 -161 -110 -260q100 -196 100 -400v-20 q0 -415 -300 -530l-120 -30h-40l-160 20h-40q-20 0 -20 -30h-30q-190 372 -190 720q-33 0 -70 -30h-20q-82 0 -120 160zM66 565q10 -30 60 -30v60l-20 20l-40 -20v-30zM156 -315h40v-20h-40v20zM216 1655v10l10 10v10l50 -10h60v-20h-120zM316 1075q27 -170 150 -170 q210 25 210 100l10 50v30q0 150 -190 150h-20q-160 -25 -160 -160zM376 415q29 -260 170 -260q160 24 160 240v10q0 145 -130 190l-60 10q-140 -37 -140 -190zM856 1655v20l150 10h130l20 -20v-70l-30 -30q-60 10 -60 30l10 10v10l10 -10h20v10l-20 20l-10 -10h-10 q-53 30 -210 30zM996 -405l20 20l10 -10v-10l-20 -20l-10 10v10z" />
<glyph unicode="9" horiz-adv-x="1139" d="M-62 -196l10 10v10q70 -10 70 -30l-10 -10h-50zM-22 544v20h30v-10l-20 -20zM-22 594v30l20 20l10 -10v-20l-20 -20h-10zM-2 1484v30l40 10l10 -10v-20zM38 924q0 187 110 370q151 170 340 170h120q333 0 460 -360l20 -180l-50 -360l10 -80l-20 -100v-140q0 -20 -50 -20 q-97 -380 -250 -380h-10q-149 96 -240 130l-10 -10l30 -160l-10 -10h-40q-225 0 -350 320l-40 180l300 50q61 -210 180 -210q102 0 150 150q0 80 -150 80q-278 0 -360 170q-140 226 -140 390zM378 944q22 -3 60 -180q48 -40 140 -50q150 28 150 150q20 45 20 130 q-52 120 -190 120q-180 -27 -180 -170zM1018 1394v10h30l20 -20l-10 -10h-20zM1038 -286l100 -20l-10 10l20 390l10 10h20v-10l-10 -30l10 -60l-10 -10l10 -10l-10 -220v-80l-20 -20h-10l-100 30v20zM1088 1454v10l20 20q70 -14 70 -40l-10 -30h-20q0 33 -60 40zM1138 464 v10h10l50 -40l-10 -170v-90l-10 -50h-20v150l-10 10l10 10v120l10 10v10z" />
<glyph unicode=":" horiz-adv-x="569" />
<glyph unicode=";" horiz-adv-x="569" />
<glyph unicode="&#x37e;" horiz-adv-x="569" />
<glyph unicode="&#x3c;" horiz-adv-x="1196" />
<glyph unicode="=" horiz-adv-x="1196" />
<glyph unicode="&#x3e;" horiz-adv-x="1196" />
<glyph unicode="?" horiz-adv-x="1001" d="M-166 1623v38h19l10 -48v-9h-10zM-90 1613l29 19l9 -9l28 9l66 -9v-19l-47 -10h-66zM23 981q0 217 171 440q142 115 246 115h57q287 0 416 -392q38 0 57 -58v-19h-10l10 -67v-10q0 -201 -171 -412q0 -51 -113 -86q-29 -62 -29 -125v-38q0 -29 -302 -115q-29 36 -38 220 q0 248 198 393q114 45 114 96l-9 48l9 48q-43 153 -142 153q-101 0 -151 -134l9 -9q-9 -106 -28 -106l-256 -19h-9q-19 0 -29 77zM42 -274l48 48l18 -20q-18 0 -18 -48l-48 10v10zM232 -236l9 10h9l10 -10v-10l-10 -9h-9l-9 9v10zM260 195v29l57 -10v-19l-48 -10zM367 103 q62 19 274 29l23 -24l24 -310l-21 -17l-55 -3l-186 -17l-25 32zM421 1613l28 29q38 -15 38 -29l-19 -19h-28zM989 1604v28l19 19h9l29 -28v-39l-19 -19zM998 1393v38l38 38l19 -76l-28 -29z" />
<glyph unicode="@" horiz-adv-x="2079" />
<glyph unicode="A" horiz-adv-x="1120" d="M-213 -262l20 20l110 -10v-20l-50 -10h-60zM-213 1518v10q0 20 190 60q0 17 50 30l200 -40v-10l-10 -10l-190 20l-90 -30v-10q50 -7 50 -30l-30 -10l-70 30q-60 0 -60 -60l10 -10h30l30 20l10 -10v-50q0 -20 -60 -40v-10l80 -280l10 10h10l10 -10v-10l-20 -20l40 -210 h-10q-25 0 -130 460q-50 103 -50 210zM-203 1628l10 10h40l20 -20l-10 -10h-40zM-63 1408l30 30h20q50 -29 50 -60h10l10 10h10l10 -10v-10l-30 -10l10 -30q-10 -60 -30 -60h-10l10 50q-17 0 -60 70q-30 0 -30 20zM-43 -172q70 247 160 720l-10 10h-10l-40 -40 q-20 17 -90 270l10 10h30q30 0 30 -70q36 0 50 -140q56 0 130 350q70 180 120 420q48 190 70 190h90l10 -10l10 10l160 -20l30 10q53 -40 150 -50l10 -10v-20q0 -20 -30 -20l-50 30q-20 0 -20 -30q160 -661 210 -750l180 -750q20 0 20 -120v-20l-20 -20l-50 10 q0 -40 -40 -40v-10h60l30 20l30 -30v-10l-60 -10l-150 10v20h60v10q-37 0 -60 40l-30 10l-20 -20q-10 30 -60 30h-40l-10 -10h-10l10 -10v-10l-20 -30l50 -10h30v-20l-490 -20q0 18 -90 30v10l80 60l-10 50v80q0 20 50 20q80 72 80 100q-70 0 -70 20q4 46 140 110v10h-40 l-140 -70l-60 -70v-140q0 -33 30 -70q0 -23 -80 -50v-60h-10l-40 70h-80l-40 10l-40 -10h-90q-20 0 -20 30zM-43 -232l10 10v10q80 -10 80 -30l-30 -20h-40l-20 20v10zM-3 1228l20 20l10 -10v-60h-20zM307 338l20 -40q95 0 220 90v10l-210 30q-24 -32 -30 -90zM397 1098h50 l90 40v20l-40 10q0 -32 -100 -50v-20zM417 458l10 -10h20l20 20v10l-30 10zM437 638q0 -24 100 -30q80 6 80 30l-80 350h-20q-20 0 -80 -350zM447 -212v-20l10 10h10l80 -10l140 20l50 -10q22 151 60 190l-10 50v20q0 27 70 130l-10 10h-10q-17 -45 -60 -70q-17 0 -50 120 l-10 10l-100 -30l20 -20h50v-10q-50 -180 -170 -180l-10 -10v-20h40q60 -6 60 -30l-40 -40h-10l-60 30l-20 -20l10 -50v-20zM477 458h30v30zM607 -112l10 10h20l70 -60q-50 -16 -50 -50h-20l-20 20q0 20 40 20zM737 508l20 -30l30 10v30zM857 188h40v10l-20 20h-20v-30z M897 248q23 0 30 50l-30 -30v-20zM907 -52v-10l70 -10l10 10v10q-13 47 -40 50v-10l10 -10v-10zM947 328l40 50v10h-10l-30 -50v-10zM1057 848v10l10 10h10l10 -10v-10l-10 -10h-10z" />
<glyph unicode="B" horiz-adv-x="1146" d="M-419 918v10l10 10h10l10 -10v-10l-10 -10h-10zM-419 1678l20 20h20l110 -20h160v-10l-20 -20h-230q-51 0 -60 30zM-249 -192h80v-20h-80v20zM-209 818v10h30l40 -40l-20 -20h-10zM-89 -202l10 10v10l10 -10h20v20l10 160l-10 30l10 30h20v-190q0 -53 40 -70h10 q20 133 20 400v270l-20 20h-70v20l20 20l60 -20l10 10v10l-10 10l30 210v10q0 20 -30 20l-130 -10v20l20 20h120l20 20v160l10 160l-10 160v130q0 85 30 120l220 -10h200l110 10q420 -148 420 -500v-20q0 -225 -160 -320h-10v-20q136 0 210 -290v-70q0 -386 -330 -510 l-190 -30l-70 10q-30 0 -30 -30l-10 -10h-10l-10 10l-10 -10l-50 10h-230l-90 -10l-30 10l-30 -10q-90 27 -90 40zM-49 188l10 10h10l10 -10v-50h-20zM-49 1578q14 70 30 70h120l-10 10v20h20q15 0 30 -40l10 10h30l20 -20l-30 -10l-10 10h-10l-60 -20l-50 10l-60 -10v-110 h-20v40zM-39 668v30h20v-30h-20zM161 818l60 10l80 -40l10 10h70v30h-50l-70 40q-100 -20 -100 -40v-10zM281 28h20v10l-20 20v-30zM301 1258q0 -59 100 -80h10v30l-50 10v10l70 70l-50 10h-60l-20 -20v-30zM351 1638l10 10l60 -10v-20h-50zM411 988q6 -150 100 -150l10 -10 h70q160 0 160 200q0 100 -80 100h-160v-20q150 -68 150 -90v-10l-70 -10h-90q-52 0 -60 30v60h-20l-10 -50v-50zM451 488l20 -140v-170q0 -18 90 -40q200 29 200 180v10q-18 210 -150 210h-30q-130 0 -130 -50zM881 1628v10h80l40 -10q45 20 130 20q30 -40 30 -120l-20 -230 h-20v10q0 200 -70 200v10l10 50l-30 10q0 -50 -20 -50h-10l-20 20v10q0 20 30 20v10q-119 0 -130 40zM911 308h20v30h-20v-30zM951 188l20 20v50l-20 -20v-50zM1061 1598l20 -20l10 10v20z" />
<glyph unicode="C" horiz-adv-x="1070" d="M-103 -103l10 40l-10 230l10 170q20 0 30 -120h-10l10 -10v-10l-10 -310h-10l-10 10h-10zM-83 967v590q0 52 30 90l250 -20v-20h-190v-10l10 -30h-10q-20 0 -20 30l-10 10h-20v-50q0 -20 30 -20v-30l-20 -60h-10l10 -10l-10 -80l10 -10l-10 -50v-90l-10 -60l10 -10v-10 l-10 -90v-50l-20 -20h-10zM57 477v110q0 514 230 790v10l-10 120l20 40l220 -10h80q32 -28 180 -70q150 -62 210 -220l50 -210l-120 -20l-130 10l-30 -10q-31 5 -80 100q-37 30 -70 30h-40q-190 -240 -190 -370l-20 -280l40 -20l40 10l10 -10h10l-10 -70v-80 q23 -160 120 -160q66 18 130 110h50l10 50v30q0 70 -40 70l-110 30v20h10q180 0 180 -160q0 -40 20 -40h190l20 -20v-10q0 -159 -200 -370q-217 -130 -310 -130l-50 10l-40 -10v20q30 0 30 20v10q-237 0 -370 440q-30 116 -30 240zM197 507l40 -20l40 10v20l-50 10h-10z M557 757v10q0 20 190 70l20 20h10v-30l-80 -60q0 -30 -20 -30l-20 40zM717 1237l10 -70q20 0 20 60h10q-12 90 -30 90zM787 -323q0 20 30 20l10 10v10l-20 30v10h160q90 0 90 90h20l10 -60h220l20 -20l-10 -10h-220q-56 -39 -100 -40v-10q40 0 40 -50h-180l-70 10v10z M907 1597v20l70 10h130l20 -20l10 10h10q50 0 50 -20l-100 -140l-60 60l-20 -20h-20v10l30 50zM1067 447v10l30 10l280 -60v-20l-220 30v-20q0 -20 60 -20v-10l10 10h10l60 -30q-10 -70 -30 -70h-30l-50 40l-30 -10v10l10 10q0 30 -30 30v10l10 10q0 60 -70 60zM1097 617 l20 540v60l10 10l-10 10v90l40 40h70l20 -20l-100 -800l-30 -20zM1277 617v10l10 10h10l10 -10v-10l-10 -10h-10zM1287 1467v10q37 30 70 30l10 -10v-10q0 -17 -70 -30z" />
<glyph unicode="D" horiz-adv-x="1135" d="M-215 1457q36 30 69 30l11 -10v-10q1 -17 -69 -31l-10 11zM-193 579v10l9 10h10l11 -10v-10l-9 -11h-10zM-79 1579q5 31 79 31h49l1 -10q-58 -35 -55 -133h-20q-2 63 -54 112zM-42 -289h40l50 -10l1 -21h-69l-21 21zM34 1487l28 41l181 -10l9 10q-1 35 -71 51l-2 31h80 l32 -31q-20 0 -19 -30l11 -31l181 -20l99 10q325 0 467 -480q55 -130 67 -470l1 -10l-9 -41l11 -10v-10q-37 -360 -132 -510q-142 -225 -302 -225l11 -10v-11l50 11l30 -11l1 -20h-140l-40 -10l-60 10l-1 20h70l-1 21q-61 4 -141 17t-150 13h-120q-120 0 -120 21l-7 1582z M46 -238l101 -20l1 -21l-70 -10l-31 31zM149 -320l10 11h170l10 -11l10 11h110v-21l-69 -10h-170l-50 -10zM273 405l1 -41l11 -10v-10l30 10l-23 71zM347 -258l49 10l21 -21l1 -10h-70zM409 1069l5 -133l19 -255l-15 -143h10l11 -11h10l148 31l23 -61q1 -28 -99 -41h-80 l-8 -51q43 -266 169 -266h20q147 0 155 429l-8 225q-3 74 -33 92l-128 -72l-10 11l-1 10q40 0 113 194q-47 92 -103 92q-199 -16 -198 -51zM650 1590h30l1 -21h-30zM699 1610h50l21 -20l1 -21h-70zM817 -269h30l288 51h20q37 85 33 215l-4 112l8 51h20l16 -173l6 -153 q18 -113 54 -113v-10q1 -20 -29 -20l-10 -11v-10l21 -20l-29 -11q-423 62 -423 82zM1243 119l19 20l11 -10v-10l-19 -20l-10 10z" />
<glyph unicode="E" horiz-adv-x="1024" d="M17 -172q18 0 28 80l-10 10v10q19 40 19 110v40l-19 80v20l19 30v20l-28 40l19 50l-19 100q37 0 37 670v90q0 20 28 20l-19 330l10 10h304l194 40q48 0 83 -30h46q0 30 19 30l240 10l9 -10h9l-9 -140l19 -350l-37 -20q-323 30 -323 80h-10q-89 -30 -157 -30h-27 q-47 0 -56 -150v-10q0 -70 65 -70l221 10l19 -30v-360l-46 -60l-37 10l-148 -20l-28 30h-18l-37 -200v-50l18 -20h28l222 -10l9 10l46 -10l162 4l37 30h55l37 -30l55 10l28 -30l-9 -50h-19l-9 50h-55l-19 -110l9 -30q0 -170 -46 -170l-55 -10l-9 30l9 100l-9 10h-10 q-7 -188 -27 -220l-162 6h-148l-276 -10v10l-28 -10q-194 43 -194 60zM26 1578v10l9 10h47v-20l-47 -10zM35 -342h10l27 -10v-20h-18l-19 20v10zM100 -352h37v-20h-37v20zM266 648l19 -30q102 39 110 60l-120 50zM322 1258l9 -50q66 0 83 50l-9 30h-65q-18 0 -18 -30z M672 1218l19 20v10h-19v-30zM779 -378l18 20h19v-20h-37zM852 -358h47v-30h-28l-19 20v10zM926 -358h46l65 10v50q0 50 -28 50v20l28 30q28 -10 28 -60v-30l-9 -10l9 -10v-60l-19 -20h-120v30zM972 302v20h37l19 -20v-10h-9zM1046 -38l19 20l9 -10v-10l-9 -40l9 -10v-10 q-12 -50 -28 -50v20l10 10l-10 10v70z" />
<glyph unicode="F" horiz-adv-x="932" d="M-12 -210l20 20l40 -30q-30 0 -30 -30h-20l10 10v10zM-2 1510q0 50 150 50q420 -6 420 -40v-80l-10 -50l80 -30q90 20 580 40l20 -20l-10 -10q60 -10 60 -30v-20l-20 -30q0 -20 40 -20v-20l-50 -10q-53 20 -350 40l-10 -10v-110l-30 -30l-120 10h-20v-10l-260 20l-20 -70 l10 -40l-10 -110v-40l20 -20h40l200 10l10 -10v-400l-40 -40q0 20 -30 20l-190 10l-10 -10v-480l-10 -40l20 -140l-10 -10h-360l10 370v300l-60 20q30 410 50 410t20 50v60l-10 50l50 30q-50 56 -50 140q-90 22 -90 130zM288 650l20 -30l60 30v10q-16 40 -70 40zM398 -330 q36 16 180 350q129 120 160 120l10 -10v-30l-300 -460h-20l-30 10v20zM658 -330l10 10h10q26 -20 100 -20q0 -20 -30 -20l-40 10l-30 -10zM698 1000v10l10 10h10l10 -10v-10l-10 -10h-10zM768 -260h100l30 20l10 -10v-20l-20 -20h-20l-10 10h-10l-10 -10v-10q30 0 30 -20 l-50 -50l-30 40l20 20v20q-40 0 -40 20v10zM878 -320l10 10h10l30 -30l-30 -20zM878 990v10l20 20h10l10 -10l10 10h10l10 -10l10 10h90l40 -10l40 10h90l-20 30q0 75 50 100l10 -60l-10 -60v-10l20 -30l-10 -10h-70l-130 -10l-80 10l-10 -10h-10zM908 1320l20 -20h70l20 20 l-110 30v-30zM938 330v10l10 10h10l10 -10v-10l-10 -10h-10zM938 560v10l20 20l30 -30v-10l-20 -20zM948 190v10q55 60 100 60l10 -10v-10l-90 -70zM948 -310l10 10h10l10 -10v-10l-10 -10h-10l-10 10v10zM1088 1670l20 20l20 -20l-20 -20zM1138 1300h60l-30 30h-20z M1228 1290h30v10l-10 30h-20v-40zM1278 -40l20 20l10 -10v-30h-10zM1288 340v120l20 -20v-100h-20z" />
<glyph unicode="G" horiz-adv-x="1125" d="M-419 513v20h10l300 20h60v60l10 10v10l-10 10l-280 -30l-10 10v10q100 30 170 80q90 22 90 50l-10 50l40 20v80l30 30l10 -10l-10 -50v-20l10 -40l-10 -40v-20l20 -80l50 10h11q-23 86 -23 111v62q0 234 95 431h-127l-20 21v82l31 31h210q217 102 347 102 q347 0 463 -503v-10l-52 -10h-85l-42 10q-60 0 -105 -82l-10 -10h-32l-63 164q-55 41 -116 41h-10q-114 0 -169 -226q16 -85 42 -113v-31l-21 -31v-61l11 -41l-11 -72v-62q0 -359 64 -359l52 -20q187 0 242 318l-31 20h-158v11l10 123l-10 72q10 71 31 71h463q42 -16 42 -71 v-52l11 -164q-18 -51 -53 -51l-10 -103q31 0 31 -20l-10 -267l10 -257h11l52 11v-21q-10 -31 -63 -31v11l-10 -11h-63l-74 11v20q42 0 42 21q-99 113 -147 113q-146 -103 -274 -103h-73q-291 0 -400 359l-11 92v10l21 21h127v10q-89 269 -128 408l-98 -25l20 -120l-30 -20 h-260zM-161 1328h32v10l-10 31h-22v-41zM-150 -263l32 93q52 -7 52 -52l273 -41v-20q-113 0 -336 -83l-21 21l11 62l-11 10v10zM-108 -37l21 21l11 -11v-31h-11zM-97 353v123l21 -21v-102h-21zM-76 1656l10 11v10l52 -10h221v-21h-31l-11 10l-10 -10h-21l-11 10l-53 -20 l-31 10l-11 -10l-21 20l-21 -20h-41zM239 1646v21h31v-21h-31zM723 1626v20h31v-20h-31zM786 1636v20l126 11h147l74 10q0 -31 42 -31l10 -10v-10l-42 -31l11 -31l-11 -72l11 -41l-11 -113v-123h-21v41l-10 51h10l-21 113l11 175v20l-242 21l-42 -10zM1007 845v21h31v-21 h-31zM1101 1010v10q21 24 21 72h21q0 -76 -31 -82h-11zM1122 1133v51h21v-51h-21zM1227 1472v10l21 20l11 -10v-10l-21 -21z" />
<glyph unicode="H" horiz-adv-x="1205" d="M-61 424v10l20 20h30l-30 -30h-20zM19 14q40 761 40 1370v150q0 20 30 20l260 -20l50 10l20 -30v-50l-10 -240l10 -10v-10q-20 -50 -16 -243l20 -20h300v20h10l-10 10v60l-14 173l10 10l-20 160l10 80l-10 60l10 10h400q30 0 30 -100l10 -400l-80 -40l60 -360l-20 -210 l30 -190v-10l-10 -10l10 -10v-320q0 -130 -140 -130l-240 10l-20 30v20l30 30h70q53 0 90 80v10l-30 40q58 0 90 130h-10l-210 -190l-20 20v30l10 120l-20 200l30 20l-10 100l4 107l10 10v10l-10 10h-130q-25 0 -30 40q-184 0 -250 -180l-34 -97q40 0 40 -190l-10 -60 l20 -150l-120 -50v-90l10 -10v-10l-10 -10h-30q-74 0 -170 230l20 60v10h-10q0 -40 -30 -40zM69 34q30 0 30 70q90 105 90 140v60h-20q-34 -19 -100 -270zM203 561l30 30v60l-20 20l-10 -10v-100zM293 651l20 -90h20q0 50 40 50v100l-10 10l10 10v60h-30q0 -30 -30 -30z M349 1634l10 10h110l70 10v-10l30 10l230 -10v-20l-250 -10v-10q30 0 30 -20v-10h-30l-70 10v20h40v10h-150zM539 164l20 30l-10 50v20l20 30q30 0 30 -60l40 -70l-50 -30zM549 -336l20 20l40 -20l50 10l30 -50l80 10l20 -20h130v-20l-50 -10l-50 10l-130 -10l-30 10 l-60 -10h-20l-30 30v50zM569 -86h20v-70h-20v70zM899 294h40l20 20q-15 40 -30 40h-20zM919 1624v10l20 20h170q20 0 30 -80h-30l-10 10h-10l10 10v20l-70 10h-110zM999 104h10q70 0 70 60h-10q-70 -42 -70 -60zM1179 1574v20h140v-10l-20 -20h-20z" />
<glyph unicode="I" horiz-adv-x="757" d="M45 -290q129 -30 350 -30h110v-10l-20 -20h-290l-150 40v20zM55 1560v10l10 10v10l-10 30h10q60 7 60 20l110 -20l10 10h10l10 -10h10l30 10l90 -10h10l100 10l10 -10v-10l-10 -10h-100q-340 -14 -340 -40h-10zM85 90q70 25 70 80v200l-10 40l20 60v20h-10l10 100v160 q0 85 20 130l-10 90l40 230v10q-30 0 -30 20v270l10 10l-10 10v20l20 30l50 -10h10l200 -10l50 10l10 -10l50 10h50l30 -20q-10 -340 -40 -340h-90l-30 -30v-80l-10 -160l10 -160v-90q40 -5 40 -30v-500q0 -20 70 -20q33 0 40 -320q-13 -50 -30 -50h-160l-180 20l-140 -10 l-30 40v40q0 151 -20 240zM305 50h30l-10 30h-20v-30zM605 1600l10 40l-10 30l10 10h20l40 -70l-10 -10h-60zM685 430v20l50 10h100v-20q-60 0 -60 -30h-40z" />
<glyph unicode="J" horiz-adv-x="1079" d="M3 1682v10l10 10h10l10 -10v-10l-10 -10h-10zM23 772v10l10 10h10l10 -10v-10l-10 -10h-10zM43 112v110q0 85 20 130l60 -10l270 10q20 -16 20 -110q33 -87 60 -90h40q100 22 100 60l-10 140l10 270l-10 10v10l10 10v10l-10 120l10 280v30l-10 10v10l-50 -10h-60l-30 30 l10 140l-10 210l20 20l50 -10h70l30 20h320q50 0 60 -440q-50 0 -50 -80v-270l-10 -10l10 -10v-10l-10 -90l30 -100v-290l10 -90q-90 -137 -90 -220v-60l-30 -30q-130 0 -180 -20q-340 0 -440 70q-84 92 -150 220q-60 0 -60 30zM103 1282v10l10 10h10l10 -10v-10l-10 -10 h-10zM393 1632l10 10v10l-10 30l30 10l170 -10v-20l-60 -10v-20h20v-20l-50 -10l-30 10l-50 -20zM463 642l10 10h10l20 -20l-10 -10h-10zM773 1662v20h80l140 10l50 -10v-10q0 -20 -50 -20q0 -60 -30 -60l-20 30l10 30h-10l-30 10l-10 -10l-50 10h-80zM1063 1602v20l50 10 l30 -10l10 10h10q67 -10 90 -50q30 0 30 -20v-20l-30 20h-10l20 -30q0 -23 -50 -30v90h-30zM1103 -248l50 50l10 -10q-10 -70 -30 -70h-10l-20 20v10z" />
<glyph unicode="K" horiz-adv-x="1057" d="M28 730l29 50l-1 40l9 80l-11 30l5 260l-7 340l19 20h210l120 10l10 -10l1 -10l-11 -460l-20 -20l1 -30h10v20h20l10 -10h10l10 10l-1 10l-20 40q234 439 260 450h10l101 -10q57 6 89 30h20l31 -30l-296 -700q133 -150 134 -190v-10h-30v-10q1 -44 208 -400 q14 -147 148 -390v-10q1 -23 -69 -30q0 -26 -29 -60l50 -10h30l150 10l11 -30l-30 -40l-10 10l-10 -10h-10q-50 30 -170 30l-40 -10l-10 10v10l29 40l-10 10h-220l-20 -20l130 -10l1 -20l-130 -20l-40 10l-130 -10l-31 30l30 20h10v-20h70q74 0 80 30q-72 113 -212 570 q0 36 -63 150l-11 50h-30v-10l11 -40l-18 -90l16 -270l-10 -10l-64 -13l-9 -50l1 -50q0 -20 30 -20l44 33l20 -30q4 -160 -36 -160l-320 -40l-20 30l-5 260q-2 71 17 110q-21 400 -38 400l9 50zM271 1060l1 -20h50l-1 20l-40 10zM404 910l1 -20h30l-1 20h-30zM472 540 l20 -20h10v30h-30v-10zM868 720l60 10l100 -10l10 10v10l-52 110l-1 20l9 40l-21 60l39 40l-21 50q0 33 39 90l2 370l-11 30h10q31 -10 32 -60v-10l-10 -10l10 -10l1 -20l-10 -10l10 -10l-9 -40l14 -190l1 -60q4 -70 21 -70l-23 -350q45 0 72 -60q1 -50 -19 -50l10 -10v-20 q-29 -34 -37 -150l-39 -40q-7 70 -51 70l-1 10l20 30q-3 160 -93 160zM1046 330v10l10 10h10l10 -10v-10l-10 -10h-10zM1111 1560v20h20l-2 70q0 20 30 20l50 -10l1 -40h-40v-20q1 -20 41 -20v-10l-20 -20h-30z" />
<glyph unicode="L" horiz-adv-x="929" d="M33 1502v10l10 10v10l100 -10h230l80 -20l-10 -400v-240l20 -180l-10 -10v-10l40 -300l-10 -10q10 -100 30 -100h110l50 -10l60 10h110l20 -20v-300l10 -60l-20 -40l-250 10h-100q0 -40 -30 -40h-150l-230 -20l-20 80v80q3 50 20 50q-18 0 -40 990l10 10h10 q52 -86 70 -190l50 -10l10 10v10q0 160 -60 160q-30 0 -30 20v250q0 168 -80 260zM53 1632v10l10 10v10l50 -10h90v-20h-150zM113 342q40 -190 90 -190h10l-70 440h-10l-10 -10h-10l20 -220zM123 -338l10 10v10l50 -10h130l300 10l250 -10l10 -10v-10l-20 -20l-40 10 l-60 -10l-260 10h-350zM193 -8h40v40l-20 20l-20 -20v-40zM273 1622v20l150 10h160q30 -10 30 -60l-10 -30h-10q-60 60 -160 60h-160zM563 642l10 70v310h20v-220l10 -60q-10 -110 -30 -110zM573 1062v160h20v-160h-20zM583 12l10 -10h10l50 10l10 -10l10 60l-10 40h-10 q0 -50 -40 -50zM713 1602q60 13 60 30l-10 30h30l30 -20v10l-10 10v10l10 10h30l-10 -70h70v10l-10 30l10 10h10l20 -20q0 30 20 30l20 -20h-10l10 -10v-50l-20 -20h-30l-30 10l-50 -10h-30q-110 0 -110 30zM813 1282l20 20l10 -10v-10h-30zM823 1352l20 20h20l20 -20 l-20 -20h-20zM853 822v10l10 10h10l10 -10v-10l-10 -10h-10zM853 1442l20 20l20 -20l-20 -20zM873 692v10l10 10h10l10 -10v-10l-10 -10h-10zM933 1372l20 20v140l20 20l10 -10v-90l10 -90q-15 -40 -30 -40q-23 0 -30 50zM953 742v30l20 20l20 -20l-10 -40q40 0 40 -20 l-20 -20zM963 592v10l10 10h10l10 -10v-10l-10 -10h-10z" />
<glyph unicode="M" horiz-adv-x="1312" d="M-164 -209l31 -5l-1 -13h10l10 10l70 -10h150v10q-60 33 -60 100l10 260l-10 30l10 40l-10 60l10 10v10q-10 76 -30 100q-23 -12 -46 -19l2 29h44l20 20v260l20 30v130l-10 50l10 40l-20 590l10 10h20l350 10l10 -10l-10 -100q17 -300 60 -300l340 -30v10q90 302 100 406 h170l150 10l20 -20l-10 -130l10 -1396l10 -180l-30 -30l-170 10h-20q-35 0 -70 -40l-90 -10h-20l-20 20v10l60 10v20h-10l10 200v10l-10 420q58 33 80 70v100q53 110 90 110v80l-60 10l10 70v70h-20l-10 -100v-20l20 -30q-70 -145 -70 -210h-20v50h-10q-30 -6 -30 -80v-10 q30 0 30 -20q-60 0 -60 -50q-150 -664 -190 -720l-30 -20q-70 0 -70 40q-26 0 -110 390q-60 157 -90 330h-30l30 -680l-10 -10h-80l-70 10l-10 -10v-20h160l20 -20v-20l-40 -10l-100 10l-160 -20l-30 -30h-30v10l10 30l-10 10h-160l-20 20v38zM-124 923h10l10 50v130l-10 70 h-10v-250zM-114 23l10 50v40h10l20 -20l-10 -40l10 -30l-10 -10h-10l-10 10h-10zM-104 -17h30v-30l-20 -20l-10 10v40zM496 1053q0 -80 100 -400l-10 -10v-10l10 -10l-10 -70v-100l10 -70h-10q28 -210 90 -210v30q-30 38 -30 90l10 10l-30 90v10l20 20q37 -133 60 -140v10 q-22 178 -50 250l154 523h-20v10l-10 -10h-180zM626 1483v20q82 30 150 30q0 -27 -150 -50zM716 213l20 -50h20q0 52 -30 60zM776 1683v10l10 10h10l10 -10v-10l-10 -10h-10zM796 1533v10l60 20l-9 -39l-41 -1zM916 1633v10l20 20h100v-20l-100 -10h-20zM936 213l20 -20 l10 40l-10 10h-10l-10 -10v-20zM1056 933h40v30h-20l-20 -20v-10zM1066 1653v10h180l20 -20v-40l-20 -20h-10q0 50 -20 50h-130zM1306 353h10q22 0 140 -420l30 -100l-30 -20h-80l-30 30v100q0 134 -40 410zM1366 -207h100l20 -20l-10 -10h-60l-50 10v20zM1416 1583v10 l10 10h80v-20l-80 -10z" />
<glyph unicode="N" horiz-adv-x="1145" d="M-65 -263l22 21q24 0 32 -52l-11 -10h-11l-32 31v10zM32 776l11 114v73l-11 42l11 10v11l-11 83l11 52l-11 52l11 31l-11 41q24 247 54 271l75 -11h194q86 0 86 -62l11 -42l-11 -72v-146l22 -114q0 -21 -32 -21q0 -70 258 -447h22l-11 52h11l-11 10v32l11 62l-11 10v11 l11 93l-11 73l11 31l-11 11l11 62l11 416l32 41l215 -21l97 11l22 -21l-11 -364v-571l11 -42l-11 -41v-333l-21 -31q0 -44 75 -166l-11 -52v-93l-32 -32h-280q-25 0 -119 332l-237 427l11 10v10q-57 64 -97 281l22 21l-44 135h-10l-11 -115l32 -62l-11 -52l54 -384h-10 l10 -11v-83q43 0 43 -166q33 -95 44 -353l-11 -10l-54 10h-11l-32 -21l-97 83q0 -93 -86 -93h-76l-32 31l-22 405l87 31q0 37 -87 62l-10 11v322q0 121 -22 166zM97 -398h21l22 -20l-11 -11h-32v31zM215 -367h43l11 -10l11 10h21v-20h-86v20zM258 59l22 -21l32 11l-43 31 l-11 -11v-10zM269 -3v-21h22v-10l32 10v11l-22 20zM797 454l22 -21v63h-22v-42z" />
<glyph unicode="O" horiz-adv-x="1157" d="M10 658q21 0 21 30q21 563 157 628q67 138 284 205q136 0 136 41q176 0 357 -226q147 -292 147 -606q0 -727 -168 -802q-138 -144 -336 -144v10l-10 -10h-105q-114 0 -294 196q-116 0 -116 174q-42 162 -73 504zM94 -360l10 11h11l10 -11v-10l-10 -10h-11l-10 10v10z M230 1295h42q21 0 32 72l-11 10h-10q-21 0 -21 -51l-32 -10v-21zM337 488q0 -357 234 -357h12q209 92 209 335l-12 446q-49 66 -49 178q-121 111 -185 111q-120 0 -160 -345zM545 10v-20l21 -21h11v21l-21 20h-11zM660 1624v21l536 20l10 -31q-6 -92 -31 -92h-11 q-42 61 -147 61h-10l21 -20h84v-10l-21 -31l52 -41l21 20h11l21 -20v-31q0 -185 -32 -185l-63 164q0 48 -105 93q-26 0 -31 41zM807 -288h74l10 31q113 0 294 51l21 -51l-21 -123l-157 10h-126l-21 21l10 10v10l-84 21v20zM1133 1254l10 10q42 -15 42 -31v-246l-21 -21 l-10 10v11l10 10l-10 10v93zM1154 -51l10 51h21v-10l11 -175l-11 -10h-10l-21 113h10l-10 10v21z" />
<glyph unicode="P" horiz-adv-x="1078" d="M-118 1579l10 10l70 -10h40v-20l-50 -10q-70 10 -70 30zM-68 -371l20 20v-10l10 10l150 -10l280 20l10 -10v-10l-30 -10l-360 -30h-60l-20 20v10zM22 659q18 0 50 60l-10 30l10 120q-30 198 -30 340v150q0 180 40 180l300 20v-10l10 -30q80 21 80 50h50q24 -20 180 -40 q191 -90 260 -250l10 10h20v-30h-20v-10q60 -126 60 -320v-10q0 -401 -290 -510l-90 -10h-70q0 -50 -30 -50h-20l-100 30l-20 -40q30 -35 30 -300v-190q0 -60 -40 -60l-300 -20q-40 10 -40 40q-6 470 -30 470l10 40zM272 529h10l20 20v30h-30v-50zM282 -291l50 10h50v-20 l-100 -10v20zM347 1188q8 -168 33 -168l-11 -107q0 -216 220 -216q132 72 132 263q0 171 -132 252l-154 -24l-77 24l-11 -12v-12zM842 1569v20l170 10h80l30 -20l-10 -60l10 -110l-10 -40l10 -40l-10 -30l10 -60v-30l-20 -20l-10 30l-20 250l10 80h-10z" />
<glyph unicode="Q" horiz-adv-x="1134" d="M-80 1658l30 30l200 -10h80l160 10l30 -10v-10l-30 -30h-40l-160 20h-10q-42 -30 -140 -30l-20 20h-20l-40 -20zM-70 -192l20 160l-10 60l10 10h10l10 -10h10l-10 -100v-100l210 -20v-10q0 -20 -30 -20q-187 0 -220 30zM-50 1138v30h20v-30h-20zM20 1518v10h30l20 -20 h-20zM50 568v110q0 402 140 620q126 240 370 240h30l80 -20l150 30q14 -1 60 -130q56 0 130 -300h10v70l-10 100l30 20h30q20 0 20 -30h20l-10 120l-60 10v30h60q0 142 -70 180l-10 -10l-50 10q-120 -27 -150 -50h-10v10l60 70q-90 0 -90 20l10 10h120l120 30 q120 0 120 -120l10 -30l-20 -50l10 -70l-20 -240h-20v40h-10l-10 -50v-340l-40 -40q14 -140 40 -140l-10 -50v-340h10l30 20h20l20 -20v-10q0 -54 -40 -70l-10 10h-10q-94 0 -180 -180q-43 -60 -70 -60v-20q10 -30 60 -30h70q27 -16 100 -320q-86 -30 -170 -30 q-261 0 -390 270q-186 0 -320 180q-150 244 -150 550zM120 1538l30 30h10l20 -20v-10l-20 -20h-20zM230 808l20 -20h20v10l-40 30v-20zM330 1378h60v10h-60v-10zM380 898q40 0 40 -20v-120q0 -142 -30 -340q27 -210 190 -210q130 89 130 200v20l-20 120l70 40 q-133 610 -200 610q-180 -64 -180 -300zM500 -32h10l20 20h-10zM540 1658v20h200v-20l-60 -20l-60 20h-80zM580 1408h20l20 20h-40v-20zM600 38h30l170 110v20h-10q-186 -75 -190 -110v-20zM890 828h10l20 20l-10 10h-20v-30zM1000 1048l20 -20l10 30l-10 30l-20 -20v-20z M1120 -42v90h20v-90h-20z" />
<glyph unicode="R" horiz-adv-x="1007" d="M-22 561l70 80v180l10 170l-10 120l10 50l-10 90v210l-10 50l20 20l100 -10l210 10l240 -40q340 -147 340 -490l-10 -80l10 -10v-10q-63 -214 -150 -250q-40 -15 -40 -30v-10q160 -134 160 -400q30 0 40 -419l-10 -10h-160q-26 0 -170 329q0 113 -70 250q-40 60 -150 60 l-30 -40l30 -649l-30 -10q-350 24 -350 50l-10 60v70q0 20 30 20v20l10 89l-10 30l10 10l-10 40l10 100q0 75 -50 110l20 190q-20 5 -40 50zM28 -558l30 20l20 -20l-20 -20h-10zM28 1781l10 10h330l20 -20v-20l-100 10h-90l-90 -10q-80 10 -80 30zM368 791l30 -30h50 q110 0 170 140h10q0 260 -220 260q-40 -10 -40 -60v-170l10 -60l-10 -50v-30zM528 211l20 20h20l20 -20v-10l-20 -20zM768 1531v20l320 20l10 -10v-310h-10q-30 0 -30 210v20q0 30 -120 40l-10 -10zM1038 261v20h60v150l-10 70h10l-10 10v10l10 60l-10 30l10 10h10l10 -10 v-240l10 -100l-40 -20zM1078 1011v130h20l20 -240l-10 -140h-20zM1078 1171v30h20v-30h-20zM1088 631v30h20v-30h-20z" />
<glyph unicode="S" horiz-adv-x="1074" d="M-118 -246q7 80 30 80q17 0 30 -70h10l270 -10v-20h-10q-84 0 -170 -30q-160 17 -160 50zM-108 1384q20 39 20 110v50l10 10l-20 80l30 20l460 -20v-20h-80l-40 -10l-10 10l-70 -10h-230l-30 -30v-60l10 -50h-10l10 -10v-10l-20 -230h-20v60zM-98 774v50h20q0 -60 40 -60 v-20q-51 0 -60 30zM-28 254l10 10h40q193 0 290 20q44 -150 210 -150h10q100 0 100 230l20 110l-40 30h-10l-170 -30h-70q-210 52 -210 150v100q-110 90 -110 310v80q0 197 240 350q116 40 180 40h70q303 0 430 -300l20 -170l-20 -20l-270 20l-10 -10q0 130 -190 160 q-127 0 -150 -160v-80h10q316 0 630 -330l10 30q0 128 -150 230q41 29 110 30q70 0 70 -70l10 -80l-10 -80q13 -253 40 -300l-20 -70l10 -30h-10l10 -10l-10 -70v-120q0 -25 -90 -50q-158 -240 -470 -240q-374 0 -490 360zM242 954h30v30h-30v-30zM502 1614v20h40v-20h-40z M592 -66v-10h70v10l-30 10zM661 1614v20h330l60 10l50 -10h60l10 -10h10l-10 -200v-70h-20l-10 50v180l-50 10zM792 -246l10 10h90l170 10v60l-10 50h-50l-20 20l60 20h20q24 0 30 -100l-10 -10v-10l10 -40q0 -22 -110 -40q0 -30 -30 -30l-110 40q-50 0 -50 20zM902 1554v10 l20 20h50l20 -20v-10h-90zM1062 1314l20 20h10v-40h-10zM1072 1124v40h20v-40h-20z" />
<glyph unicode="T" horiz-adv-x="1017" d="M-113 987l220 60l30 -10l220 20q23 -23 30 -130h10q0 120 60 120q0 36 140 50l10 10v20l-80 10q-130 -32 -470 -40l-20 30l10 100l-10 270v20l10 10v10l350 -10h90l40 10l40 -10h120l270 10l20 -30l-10 -180l10 -210l-10 -10h-30l-200 10l-10 -10v-10l10 -500l10 -10v-10 l-10 -40l10 -10v-10l-10 -40l20 -100l-20 -210l10 -110l-10 -170v-40l10 -50l170 10h120q20 0 20 30q0 263 -40 350l20 20v10l-30 30h-130v20l200 20l10 -10v-340l-10 -40l10 -30l-10 -30l10 -70l-10 -40l30 -100l-10 -10h-10q-20 110 -100 110l-480 30l-120 -10l-30 60 q0 98 30 140l-30 30v50q40 23 40 90l10 10l-20 40l20 210l-40 150l30 120l-10 150h-50l-40 30l10 100v50l-10 50q-223 -13 -240 -60v-10q0 -20 100 -60v-30h-30l-70 40v-10zM-83 -113l20 20h10v-40h-10zM-73 -263l20 20l10 -10v-20l-20 -20l-10 10v20zM-73 697l10 10h10 q68 -16 180 -110v-20q-10 -27 -150 -130l-10 10h-10l10 100v50q0 36 -40 90zM-33 977l50 -30l30 10q0 26 -70 40l-10 -10v-10zM-13 417v10h10l20 -20v-10h-10zM37 1687v20l30 30h100l110 -10l50 10v-10l10 10h10l60 -10l10 10h10l10 -10h10l60 10l20 -20h250l450 10l20 -20 l-20 -150l30 -30v-20q-20 -16 -20 -110l-10 -10h-10l-30 140l20 20v50l-20 30l10 40l-70 20l-20 -60l-10 10l-10 -10h-10q-20 0 -20 30l-10 10h-10q-50 0 -50 -20l-240 40l-40 -10l-50 20l-70 -10v10l-10 -10h-190l-270 -10l-50 -60h-20zM247 -443l20 20l10 -10v-10l-10 -10 h-20v10zM427 137l20 -60h10q71 0 130 130l-20 60v10q3 50 20 50l-10 30l-60 -70h-20v50h-10q-36 0 -60 -200zM637 387l60 10v40h-20l-40 -40v-10zM907 587l20 20q60 -24 60 -40v-30l-60 -60h-10l20 80zM937 1677l40 -10l10 10v10h-50v-10zM1217 847v30h20v-30h-20zM1227 727 v20l20 20h10v-60h-10z" />
<glyph unicode="U" horiz-adv-x="1148" d="M-206 1100v20l30 10l-10 50v10l10 50l-20 20v20q0 15 90 50l70 -20v-10q0 -20 -50 -20l-10 -10v-160q0 -20 -30 -20q0 -91 30 -210l-10 -10h-20v40l-20 80l10 10q0 100 -70 100zM-116 820v30h20v-30h-20zM-106 700v20l20 20h10v-60h-10zM4 -200l10 70h20q0 -110 50 -110 l150 -20v-30l-110 -20h-60q-52 0 -60 30v80zM34 1320l10 50v130l20 20h330l20 -20v-260l-30 -60l10 -10l-10 -50v-600q0 -370 180 -370h40q160 0 160 370l-20 290v80q10 68 30 70l-20 490l10 10h250q20 0 20 -30l-10 -290q0 -72 60 -110v-70h10l10 100l-10 30q0 65 60 90h10 l10 -50l-40 -510l-20 -20l20 -80q0 -30 -40 -30l-10 -50l10 -50h10l10 10h10l10 -10v-10l-10 -70h-10l-10 10h-10l-10 -40l10 -10q0 -270 -270 -450q-168 -60 -230 -60q-334 0 -450 250q-70 110 -70 250l-30 30l10 240v10l30 30l-30 590q18 18 260 50l10 10v20 q-290 43 -290 80zM744 1580v20l30 30h40l130 20l10 -10l20 -20l120 10h60l20 -20v-40q-64 22 -220 30l-40 -10l-100 10l-50 -40zM854 -400q19 46 40 50h160l20 20v20q0 20 -60 20v10l-10 -10h-10l-80 20v20q190 0 190 80q0 90 30 90l10 -10h10l20 20h10v-50h-10l-10 10h-10 l-30 -50q20 0 20 -30l-20 -50h40l10 50v30h20v-20l10 -70q-90 -26 -90 -40l10 -60l-10 -40l10 -30l-20 -40l-60 20l-10 -10h-30q-150 24 -150 40v10z" />
<glyph unicode="V" horiz-adv-x="992" d="M-175 29v9l227 50h19l28 -20h57v-10q0 -24 -104 -39l-9 10v9l-208 -19zM-89 502v20h9l94 10l29 -10v-20h-132zM-4 1518l18 20h199l85 10q46 0 66 -197q29 -50 161 -839l10 -10h18q38 0 57 345l95 691h151l95 10l66 -59v-10q-76 -873 -237 -1441q0 -181 -94 -196 q0 -89 -47 -89q-237 32 -237 69q-138 641 -246 641q-35 39 -66 39v10l9 10v10l67 -10h56l19 20l-198 809q-47 117 -47 167zM601 1548v20l19 19h47v-19z" />
<glyph unicode="W" horiz-adv-x="1419" d="M-60 1516v20l20 20h60l60 10q780 -228 780 -250l-10 -10q-317 99 -440 100l-10 -10l10 -10v-30l-60 90h-20l-10 -40l40 -180l-10 -40l50 -140l10 -110q-21 -4 -40 -50q34 0 50 -220q20 0 30 -120h20q14 130 60 130h20v10l-20 60v40q23 200 100 200l220 70h30 q37 0 90 -320v-10h-10q-38 30 0 -10q50 -25 90 -210h20l10 40l10 350l-10 10v10q20 60 20 260v40l30 190l-10 50v20l10 10v10l310 -20l30 10l20 -20q-38 -199 -70 -1050q-34 -470 -90 -470v-30l30 -120q0 -20 -110 -30l-30 10l-400 -20l-20 30l20 260l-10 30l10 10v10 l-110 400l-10 10h-20q-30 -57 -70 -340q-28 -54 -30 -110l60 -170v-10q0 -22 -90 -50l10 -40q0 -26 -50 -50q-240 0 -240 50q-200 599 -200 870l10 10q-40 374 -140 850zM130 996q100 17 100 40l-10 10h-10q-80 -24 -80 -40v-10zM160 1066h20l30 10l-20 20zM190 746 q22 -80 80 -80l60 -10l40 20l-10 10v10l10 10v10l-70 80l-30 -20h-60q0 -30 -20 -30zM300 1046l10 -10h10l10 90l-10 10h-10l-10 -30l10 -50zM310 346q0 -87 70 -130h10v160l10 10q0 83 -60 130l-30 -100v-70zM410 1356q26 0 40 -80q-26 0 -40 80zM460 1236v30l20 -20v-10 h-20zM470 1086q0 42 260 90q39 28 190 70h30v-20q-376 -114 -380 -130l-10 -10v-10zM540 1606v20h110l20 -20l-10 -10h-70zM550 556q30 -90 80 -90l-20 110l-30 -20l-30 10v-10zM750 1596v10l20 20h130l20 -20l-10 -10h-160zM970 1246v10l20 20h30v-20zM1000 1536v20h20v-40 zM1020 1556l20 20h20v-20h-40zM1250 706h50v20h-30z" />
<glyph unicode="X" horiz-adv-x="1024" d="M-259 1466l90 20l10 -10v-10l-30 -10v-40q0 -54 -40 -70zM-259 1556l60 20q0 -20 30 -20l10 -10v-10l-10 -10h-10q-80 6 -80 30zM-199 1026l10 10v10l-10 30h20q7 -50 50 -50v-20q-25 0 -30 -40l10 -10l-10 -10h-10q-30 6 -30 80zM-159 786l20 30l-10 10v50l50 40l30 -80 l-10 -10l20 -20q-26 -140 -50 -140q-34 0 -50 120zM-139 936v20l20 20l10 -10v-50h-10zM11 -103q180 378 330 759q-215 363 -330 850l20 20q300 -20 300 -60q152 -377 180 -390l140 410l390 30l20 -40q-118 -205 -360 -810q0 -38 90 -160q40 -130 200 -330l-10 -100l90 -219 l-230 -110h-60q-200 367 -200 479l-50 40q-52 -35 -140 -319q-54 -131 -80 -140l-280 -10zM591 -243l10 10h10l10 -10v-10l-10 -10h-10l-10 10v10zM921 -413l10 10h10l10 -10v-10l-10 -10h-10l-10 10v10zM1051 746v10l10 10h10l10 -10v-10l-10 -10h-10zM1111 36h20l20 -59 h-20zM1181 376v10l10 10h10l10 -10v-10l-10 -10h-10z" />
<glyph unicode="Y" horiz-adv-x="894" d="M-166 1602v10l20 20h10v-20l-20 -20zM-116 572l40 130l-10 10v10l10 30l-10 100q0 46 30 90q80 -10 80 -30q-70 0 -70 -60l-10 -100q0 -197 80 -250q90 -70 90 -120h-10q13 -88 40 -120l-10 -10h-30q-16 2 -90 150l-120 130zM-76 1462v20l20 20q160 -7 160 -20l30 10v60 h250l30 -20l-10 -50v-10q30 0 30 -20v-60l-10 -10l10 -10v-10l-10 -40l130 -510h40q0 90 -30 170l130 500q40 0 40 20q200 -20 200 -40l-170 -560l-10 -10l10 -40q-80 -290 -100 -290q-30 6 -30 80h-20v-180q2 -100 20 -100l-10 -50q0 -131 40 -190l-10 -200l10 -120 l-30 -20q-380 14 -380 30l10 220v140l10 40l-50 80q60 30 60 100v20l-120 510q-23 192 -240 540zM284 882h10l50 10v10l-20 20h-20l-20 -20v-20zM394 522l10 -10h10q68 0 100 50l-30 10q-90 -18 -90 -50zM444 42l20 -20h30v50l-20 20l-30 -30v-20zM514 -368l50 -10v-20h-30 l-20 20v10zM634 -378l10 10h30v-30h-20zM904 142v30l20 20v-50h-20z" />
<glyph unicode="Z" horiz-adv-x="911" d="M-369 428v9q0 20 162 69q45 130 90 351l-18 68l9 39l-27 30l45 341l-45 166q0 39 81 49v-29h-27v-49l18 -176h-9l-18 -19q23 0 36 -137h18v20h18v-49l26 -39v-20h-9q-17 0 -17 29h-9l-18 -58h18l44 10q72 -221 72 -313h-9q-17 10 -89 254l-9 10h-27v-20q48 0 62 -195 q16 0 27 -88l-9 -9h-9q-30 65 -71 97h-9l-9 -146l9 -59l-9 -29l62 10h18v-20q-161 -27 -161 -117q-27 0 -27 -29l-9 -10h-18l-9 49v29h-9zM-279 164l18 20q207 -54 207 -88l-9 -10q-216 51 -216 78zM-243 232v30l18 19v-49h-18zM-81 -255l18 19l53 -19v-20l-44 -10zM26 135 v9q95 400 413 869l-36 39l90 88v20l-449 -10l-9 10v58l9 68l-9 88v166l719 -10h107l36 10q36 -14 36 -29v-59q0 -84 -45 -244h9q45 -2 45 -29q0 -49 -54 -49q-367 -426 -458 -810l-54 -127l27 -19l90 10h72l171 9l9 -9h9l53 9h27l27 -29l-9 -253v-10l-9 -39l9 -39v-49h-18 l-314 -19l-9 9v10l-242 10h-216l-18 19l9 302zM179 66q1 -21 90 -58l27 10l152 -58l45 -98q135 0 135 68l-36 20v29l54 10q12 -69 27 -69q143 0 143 79l9 28v59l-54 29q-34 -29 -170 -58l-45 -49q-198 26 -198 49l-9 -10h-9l-125 29zM556 1296l18 -19h9l45 9l18 -58l81 78 l-9 10l-9 -10l-45 10l-9 -10l-45 10h-54v-20zM825 281v10q14 39 27 39l45 -10l54 10h27l18 -49v-10l-18 -19h-9q0 49 -90 49h-18l-27 -20h-9zM906 925l9 88h18l18 -136q-9 -98 -27 -98h-9zM924 -216l18 19h18l18 -19l-9 -10h-45v10z" />
<glyph unicode="[" horiz-adv-x="569" />
<glyph unicode="\" horiz-adv-x="569" />
<glyph unicode="]" horiz-adv-x="569" />
<glyph unicode="^" horiz-adv-x="961" />
<glyph unicode="_" horiz-adv-x="1139" />
<glyph unicode="`" />
<glyph unicode="a" horiz-adv-x="1153" d="M-519 -279l40 20q260 0 260 -40l-10 -10h-80q-210 0 -210 30zM-519 1581v10l20 20h120l10 -10l10 10h70q160 0 160 -30l-10 -10h-120l-150 10l-100 -10zM-479 671l20 20l20 -40l-10 -10h-10zM-469 581v10l10 10h10l10 -10v-10l-10 -10h-10zM-459 -59l60 170l380 -90 q140 345 220 670q71 108 140 440q27 24 80 260q61 190 80 190q310 -84 310 -110q67 -340 100 -340l10 -40l50 10q40 -17 40 -70v-20l-10 -40l10 -30h-10l10 -10v-20q30 -530 100 -530l-10 -40l130 -460l20 -90l-10 -10h-440l-100 -10l20 -30h-40q-250 43 -250 90v10l30 10 l110 -20l60 10l180 -10h60q-23 370 -60 370l-150 -10h-130q-110 0 -110 -50l-70 -220l20 -50l-10 -10l20 -20v-10q-30 0 -30 -20v-10l10 -10v-10l-140 -70v-10q-110 0 -110 110l-90 20v-10l-50 -40l-10 10h-10l20 60h-10l-60 30l20 100h-10q-25 0 -70 40h-10l-100 -10 l60 -110v-10l-20 -20h-10l-10 50l-10 -10h-20v10l10 10v10q-100 30 -100 70h-20l-10 -50v-10q80 0 80 -30h-10l10 -10v-20q-20 0 -20 30l-50 -10v-20q80 -6 80 -30v-10q-150 24 -150 60v30zM-379 991v10l10 10h10l10 -10v-10l-10 -10h-10zM-349 31l30 -20h40v20 q-60 0 -60 30h-10v-30zM-159 -279h50v-20h-50v20zM-119 1591l30 20h10l30 -30l-10 -10h-40zM-29 1591l10 10h60l20 -20l-10 -10h-60zM241 1571v30l20 20h10v-20zM471 1761v10h20l20 -20l-10 -10h-10zM541 591q114 -50 160 -50l10 10v10l-60 310h-30zM561 461l20 -20h30 l10 50l-10 10h-50v-40zM591 -399h20l20 -20h-40v20zM601 1191h40l-20 20h-20v-20zM751 -449h30l20 -20h-50v20zM881 1641h20q204 -40 220 -70l-30 -10q-184 39 -210 80zM1021 1131v10l120 10h350l20 -20v-280l10 -60l-10 -50l10 -10v-10l-10 -10v-10l10 -80l-10 -10l10 -50 v-150h20v-10l-20 -20h-90q-190 0 -220 -30l-20 20v20l170 20l-10 10l10 120l-30 170l10 10h10q48 0 60 -90l-20 -130q30 -10 30 -60v-10l-10 -10v-10h70v380l-20 30l10 10h10l-10 70v110l-10 10v10l-70 -10h-10l-20 20v10q0 20 30 20l10 10v10l-50 10h-100l-20 -20l-50 10 h-60v-20h-20v20q-80 26 -80 40zM1101 1381l10 10h10l20 -20l-10 -10h-10zM1271 451v10l10 10h10l10 -10v-10l-10 -10h-10zM1331 1421h10l90 -20v-10l-20 -20h-20zM1401 -279h20l20 -20l-10 -10h-30v30zM1411 1081l60 -20v10l-20 20h-40v-10z" />
<glyph unicode="b" horiz-adv-x="1108" d="M-488 1580l40 40q0 -30 130 -30h160v-10l-20 -20h-290zM-448 450v10l10 10h10l10 -10v-10l-10 -10h-10zM-388 1420h10l90 -20v-10l-20 -20h-20zM-318 -279h20l20 -20l-10 -10h-30v30zM-308 1080l60 -20v10l-20 20h-40v-10zM-198 1470v30q10 30 60 30h30l20 -20 q-29 -4 -70 -50h-10zM-178 220v60l20 20l10 -10l-10 -10v-10l20 -60v-10h-20zM-158 150v10l20 20h50l20 -20v-10h-90zM42 -159q28 150 90 150h10q-90 68 -90 429h-10l10 70v1020l10 10v10l70 -10h200l90 -10l80 20h100q356 0 430 -410v-50q0 -223 -170 -340 q210 -111 210 -330v-90q0 -307 -280 -439l-270 -80l-10 10h-10l-60 -10l-10 10h-10l-10 -10l-80 10l-100 -10v10l-60 -20q-130 12 -130 40v20zM132 250q50 -29 50 -60h10q74 0 80 30v10l-20 30l10 30h-10q-36 0 -80 40h-10q-30 -6 -30 -80zM202 360q0 -23 50 -30v30h-50z M312 120l20 -20h10v20l-20 20l-10 -10v-10zM372 300q40 -95 140 -130q20 0 20 -60l80 40q0 40 50 40q80 74 80 150q0 230 -180 230q-170 0 -170 -160q-17 0 -20 -50v-60zM402 90h30v20l-30 -10v-10zM402 1100q0 -240 80 -240l80 -10q160 18 160 150v80q0 115 -150 140 q-149 0 -170 -120zM652 10l60 -10v10l10 10v10l60 -20l10 50q-39 20 -110 20h-10l-20 -40v-30zM682 -29v-10q0 -18 50 -30l20 30q0 15 -40 30q0 -20 -30 -20zM722 150l50 10v10h-50v-20zM742 260l30 -10l80 20v10l-20 20l-10 -10l-20 20h-20zM822 1650v20l300 10h110l20 -20 v-10l-10 -50l20 -20l-20 -20h-160q-74 0 -80 30v10l100 10l20 -20h60l30 30v10l-120 20l-60 -10l-10 10h-10l-10 -10l-70 10h-110zM852 200q50 0 50 -20l120 40q0 80 -120 80l-30 -10v-60zM892 520l20 -20l40 10l40 -10l10 10v20q-50 0 -50 40h-20l-40 -20v-30zM922 260 l10 10h30l20 -20l-10 -10h-30zM1102 -169l60 20l10 -10v-20q-10 -30 -60 -30l-10 10v30zM1192 1470l30 20l20 -20l-10 -120v-220l20 -30l-20 -60h-20v240l-10 90l10 10v10zM1202 270v210l20 20q20 -45 20 -130v-50l-10 -100h-20zM1212 650v30h20v-30h-20zM1212 760v210h20 v-210h-20z" />
<glyph unicode="c" horiz-adv-x="1129" d="M-73 -23l21 21q192 -41 192 -62q0 -31 -202 -52l-11 11v82zM-73 -230h21v-20l253 -11v-20l-51 -11h-192l-31 31v31zM-52 1270v83q0 19 80 62l10 10v52h-70l-20 20v114l20 21q120 -60 131 -104q0 -20 -30 -20l-31 10v-31q57 0 122 -52h30v-10l-81 -72q-71 -114 -101 -114 v-11q0 -18 112 -41v10q26 135 131 135l31 31l-51 -10h-10l-10 10h-10q131 186 334 186h51q74 0 81 -31l-10 -10v-11l71 11q314 -131 314 -548q0 -21 -71 -21v-10l-51 10h-182q-17 0 -51 165q-61 62 -101 62h-31q-172 0 -172 -382l-10 -62q0 -306 111 -362q16 0 31 -104 l-21 -72l71 -21q183 0 183 279l30 21l10 -10h11l40 10l-10 10v42q40 33 40 83l11 10h30l71 -145q91 -12 91 -31v-52q0 -402 -284 -558l11 -10v-10l-11 -32q39 -31 92 -31v-31h-132l-51 11v20q51 0 51 63h-10l-142 -21h-71q-316 0 -436 341l-40 217l20 93l-20 290l20 20 l71 -10h50l21 21q-102 115 -102 258v155h-91q-21 0 -50 83zM-42 1653v10q0 21 30 21l152 -11v-20h-102l-50 -11l-10 11l-10 -11zM464 1425h10q48 0 173 62v10h-11q-52 0 -172 -51v-21zM900 1642v21l152 10h71l50 -51h11l10 51l20 -20v-52l-10 -10v-11l30 -20h102v-21 l-51 -11l-132 11l-30 -11l-71 21v11h20v10l-71 72h-10v-20l-61 20h-30zM961 -281l10 10v10l71 -10h20l30 21h11l20 -21v-10l-20 -21h-122zM1062 -147h30l21 -20l-10 -11h-21l-20 21v10z" />
<glyph unicode="d" horiz-adv-x="1070" d="M50 -262l10 11h11q46 -32 123 -42l10 10h11q61 -13 61 -31l10 11h21l31 -32q0 -31 -41 -31l-11 10h-10l-10 -10q-206 0 -206 63zM50 416l21 636l-11 63l21 449l31 41h61q31 0 31 -73l52 -10h82l185 31q382 0 463 -542q23 0 30 -303q0 -510 -113 -730q-137 -219 -390 -219 l-113 21l-93 -10l-236 10l-11 10v11zM81 1710l41 21q82 -7 82 -32q0 -21 -103 -41zM389 218q67 -63 113 -63q134 0 175 261l-10 63l20 271l-82 407q-35 31 -103 31q-92 0 -92 -146v-167zM718 1574v10l21 21h10l237 21v-10l30 10q144 -34 144 -62l-20 -21h-10l-31 21h-41 l-11 -94h-20q0 94 -113 104h-196zM883 -251q195 23 195 62l21 -31v-21l-31 -31h-185v21zM883 1678v21h20l11 -10l102 21l11 -11v-10l-11 -11v-10l-102 10h-31zM903 -345h113l-10 52h31l10 -52h62l21 62l30 -31v-21q-7 -31 -102 -52l-155 21v21zM1078 30l10 31h21l31 -31v-52 h-10zM1099 1209l20 21l21 -32v-31zM1140 635l10 10h10l21 -20v-11h-21z" />
<glyph unicode="e" horiz-adv-x="913" d="M-99 -463l10 10h10l20 -20l-10 -10h-10zM-79 1567v20q0 74 30 80h30v-20q-40 0 -40 -20v-10l10 -50h-30zM51 -223l20 920q18 26 30 220l-10 60h10l-10 10l10 120v10l-30 400l20 20h210l80 -20l210 10h10l40 10l10 -10l70 10h100l20 -20v-30l20 -360l-40 -20l-70 10h-50 l-60 -10l-10 10l-100 -10h-80q-17 0 -40 -120l-40 -30v-60l20 -20l350 20l10 -10v-10l20 -370q-42 -30 -160 -30l-190 10q-40 -10 -40 -60l10 -50l-10 -110v-100l20 -20h440l20 -20v-310l-30 -30h-120l-650 -20zM51 1657v20l50 10l40 -10v-20l-80 -10zM211 -493h30l-20 -20 l-10 10v10zM411 1657v20h30v-10l-20 -20zM801 1677v20q24 0 50 30l30 -30v-60z" />
<glyph unicode="f" horiz-adv-x="983" d="M-135 -279q20 130 50 130h30q20 0 20 -30l60 -180l-10 -10h-50l-30 30l30 50v10h-10q0 -30 -50 -30h-10zM45 961l30 190v30l-20 330l40 20q716 20 800 40l50 -410q23 0 40 140l10 10h10q20 -39 20 -110v-130q-10 -30 -60 -30l-40 110l-560 -30v-10l20 -50l-10 -170 l10 -10h10l360 10l20 -80l10 10h40l30 -30v-20q-10 -30 -60 -30h-30v-120q0 -20 -120 -50q-77 0 -250 -230l-20 -50v-10l20 -30v-10l-10 -60l30 -100v-140l10 -140q-13 -50 -30 -50l-300 -10l-30 70l10 100zM75 -309q0 25 40 30l70 -10v-20l-100 -10h-10v10zM85 -370l10 10 l50 -10l540 20h40v10q-50 0 -50 60l10 10h10l40 -40l60 10l10 -10v-70q-6 -30 -80 -30h-110l-60 10l-10 -10l-50 10h-240l-110 10l-40 -10zM575 91v20q170 0 170 60v10h20q0 -60 20 -60h130l60 10l10 -10l50 10h20l10 -10h10l-10 -50v-10l30 -30l20 20l92 -37l1 -30l-43 -43 h-20q-60 0 -60 40h-10l-10 -170l10 -30l-10 -10h-50l20 100l-20 190v10q-33 0 -70 30h-30q0 -30 -20 -30h-20v30q-90 0 -90 -150l-10 -70h-10l10 -10v-20h-20v40l-10 -10h-10v20h20v30q-79 160 -180 160zM735 281v60h20l10 -100v-10h-20zM775 761h30l30 30l-10 10h-20 l-30 -30v-10zM1015 -309q6 60 30 60q0 -22 60 -70l-10 -10v-10q-80 10 -80 30zM1025 1621l10 10l40 -10v-20h-30zM1185 1601l10 10h10l10 -10v-20h-10z" />
<glyph unicode="g" horiz-adv-x="1057" d="M44 486v89l20 315l-20 40q33 199 79 306q145 286 436 286q367 0 486 -355q-27 -257 -50 -257h-29q-248 20 -248 59q0 168 -169 168q-158 -31 -158 -207l-30 -128l10 -10l-10 -119v-88q0 -301 99 -425l70 -19h19l70 9q0 -21 -99 -49q0 -305 99 -305h59v-10q0 -26 -148 -40 q-178 0 -337 178q0 38 -80 88l-21 28l21 -8l10 10v10l-10 59q143 0 179 69l69 20l10 10v39l-30 59l-39 -19l-139 49l-50 -30h-39q-30 0 -30 178zM84 1601l10 10h9l10 -10v-20h-10zM123 496l60 -69h109l29 29v10q-52 0 -109 59l-59 10q-15 0 -30 -39zM361 141l20 -20l10 10 v10h-30zM539 644l20 39l298 -10h99q39 0 39 -276v-10l-10 -49q30 0 30 -40l-40 -344v-148l-19 -20h-159q-65 0 -89 39l10 50v295l-60 10v20q30 36 50 128l-10 10h-129l-20 20v79zM797 -293l20 20l20 -20v-10h-40v10zM866 -293h70v-20h-70v20zM1005 1463v10h10q60 -10 60 -30 l-20 -20zM1253 1552l10 9h69l20 -19l-10 -10h-69z" />
<glyph unicode="h" horiz-adv-x="1064" d="M-230 1543l20 20h80l50 -10v-20l-120 -10h-10zM30 1483q13 60 30 60h320q20 0 20 -30l-20 -300l10 -350l10 -10h100l170 -10l10 10q-10 522 -30 700l10 10h100l220 10l20 -60h-10l10 -10l-10 -50v-300q0 -345 30 -410l-10 -959l-10 -10q-350 20 -350 40l30 729l-10 10 h-40l-90 -10l-100 10h-20q-20 0 -20 -60h-10l10 -120l-10 -609l-10 -10h-290l-30 20l20 889l10 90l-10 10v10l10 40v20q-60 0 -60 650zM1020 1653l50 60l10 -10v-10l-10 -10h-10l10 -10v-10l-30 -30zM1160 1523v20h60l20 -20l-10 -10z" />
<glyph unicode="i" horiz-adv-x="659" d="M-257 -39q22 -80 80 -80l60 -10l40 20l-10 10v10l10 10v10l-70 80l-30 -20h-60q0 -30 -20 -30zM-227 1698v26h159l29 -26l-14 -14h-101zM76 1684v14l29 26h188l29 -26l-15 -14h-231zM83 336v10l20 20h30v-20zM88 1160v360l20 20l440 -10l20 -20v-160l10 -200 q-80 -20 -80 -40v-270l50 -630q20 0 20 -50v-30q0 -14 -80 -40l-30 10l-50 -10l-70 10q-150 -10 -150 -40l10 -10h160l200 10l10 -10v-249l-10 -10v-10l-270 10h-140q-25 0 -30 40l-20 219l10 10h10l-10 50v90q0 20 100 30v50l-40 640l10 220h-70zM348 820h20v20h30v-10 l-10 -10v-10l60 -60h10l10 120v10l-20 20l10 50v10q-47 0 -80 50l-10 -10v-10l10 -30zM407 -330q0 42 260 90q39 28 190 70h30v-20q-376 -114 -380 -130l-10 -10v-10zM437 1605v27h29v-53zM466 1632l29 26h29v-26h-58zM669 1529q0 -87 70 -130h10v160l10 10q0 83 -60 130 l-30 -100v-70zM692 1292q30 -90 80 -90l-20 110l-30 -20l-30 10v-10zM790 800q100 17 100 40l-10 10h-10q-80 -24 -80 -40v-10zM820 870h20l30 10l-20 20zM960 850l10 -10h10l10 90l-10 10h-10l-10 -30l10 -50zM1070 1160q26 0 40 -80q-26 0 -40 80zM1120 1040v30l20 -20 v-10h-20z" />
<glyph unicode="j" horiz-adv-x="1077" d="M-162 221v51h20l10 -10h10q-15 -41 -30 -41h-10zM-92 1654l20 20l20 -20l-20 -21zM-32 1633v10l10 11h10l10 -11v-10l-10 -10h-10zM38 210v52l10 10v11l200 -11h80q20 0 40 -92q60 -62 130 -62h10q79 0 170 92l20 -20h30v10q-20 24 -20 72l-10 73l-20 20l10 175v361 q0 362 -30 629l30 21l30 -21l250 -10l10 10h10l40 -31v-62l-10 -154q21 -31 110 -31l30 -31l-10 -10h-10q-50 0 -50 20q-70 0 -70 -82v-670q0 -31 -60 -31l20 -196q0 -327 -250 -433l-200 -41q-342 0 -470 309zM88 1066v10l10 11h10l10 -11v-10l-10 -10h-10zM88 1128v10 l10 11h10l10 -11v-10l-10 -10h-10zM88 1180v10l20 21l10 -11v-10l-20 -21zM88 1231v10l10 11h10l10 -11v-10l-10 -10h-10zM88 1272v11l20 20l10 -10v-21h-30zM88 1345v61h30v-51l-20 -21zM88 1437v11l20 20l10 -10v-10l-20 -21zM158 1551l10 10h200l50 -10v-21h-10l-90 -10 l-10 10h-10l-10 -10l-50 10l-40 -10zM308 1138v11h20l20 -21l-10 -10h-10zM378 1716v10l10 10h10l10 -10v-10l-10 -11h-10zM558 76q15 -41 30 -41v21h10l-10 31h-30v-11zM688 -57l90 -31q100 51 100 154l-10 31l10 62v72h-50q-60 -6 -60 -31l10 -10v-10l-20 -73l10 -41 q-40 0 -80 -123zM778 -346h10q131 0 210 31q22 -62 60 -62v-20h-20v10l-90 -10q-84 0 -170 31v20z" />
<glyph unicode="k" horiz-adv-x="996" d="M-140 1204v30h10l20 -20v-10h-30zM-130 1254v70l30 30l20 -40q-20 -60 -40 -60h-10zM60 1524l10 10l280 -20l80 10l20 -30l-20 -390l10 -30h10l260 440l40 10h190l20 -20v-10q-60 -140 -360 -620v-10q0 -35 220 -450l160 -380l-10 -159v-90q0 -52 -30 -60h-250 q-34 0 -50 190q-160 563 -190 609h-10q-60 0 -60 -60l50 -639l-60 -20h-190l-40 -10q-40 10 -40 40l-30 619v240l10 40l-10 10l10 120zM430 654l20 -20h10v30h-30v-10zM960 754v20q0 36 40 80v50l-10 40q19 46 40 50l-20 60q0 20 30 20l-20 30v50h10q30 0 30 -150l10 -10h10 q2 40 20 40l-30 70l30 20h10q0 -54 60 -60v-10l-10 -10h-10l-10 10h-10l-50 -130l10 -40l-20 -20l30 -50l50 10l20 -60l-60 -20l-30 10l-30 -20l10 -120l-10 -120l10 -80l-10 -10h-50l-20 20q15 0 40 110q0 220 -60 220zM1130 -445l10 10h10l10 -10v-10l-10 -10h-10l-10 10 v10zM1220 1604v10h30l-20 -20zM1240 1344v10l20 20l20 -20l-10 -10h-30z" />
<glyph unicode="l" horiz-adv-x="871" d="M60 -204l20 439l-10 630q50 371 50 520l-10 60q13 60 30 60l350 10q12 -60 100 -60l37 6l12 -32q-5 3 -9 6l-80 -40l-30 10q-28 -71 -90 -460l-70 -260l-10 -10l-30 -80h10q90 0 90 -50l10 -10l-10 -50v-120l-10 -40l10 -10l-20 -230l50 -10l40 10l10 -10l190 20h60 q70 0 70 -90v-119q0 -110 -30 -110h-190l-10 10l-10 -10l-50 10l-240 -10h-200zM100 1525v20h100v-20h-100zM300 1535v20h40v-20h-40zM400 1525v20h30v-20h-30zM543 1220v11h7l233 6l15 -17l-8 -17h30l60 -12h38l142 -11l8 6v5l37 -5h45v-12h-67v-28l-38 -35l53 -63 q-12 -23 -23 -23l8 -5v-6l-23 -17h-82q-22 0 -60 80h-30v11q52 0 52 29l8 6h7l30 -18l53 6v6q-60 7 -60 34l-23 -5q-52 0 -52 34l-8 -6h-22l-8 6l-7 -6h-23l-7 6h-8q-21 0 -30 -126q36 -57 180 -97l38 -6l22 6l8 -6q-13 -80 -38 -80l-22 -51h7l30 5h8l15 -11l-45 -12l-15 12 h-8q0 -34 -45 -57l-45 5l-97 -11l-90 11h-38l-15 12v6q23 0 23 17l7 5h23l15 -11l45 34l37 12h8l67 -52l8 6h7l-7 29l45 28l7 -6v6l-30 29l8 6v17l-23 -12l-7 6v11h30v6q0 12 -23 12v17h23v28q-30 0 -53 -74l-22 -17q-30 0 -83 74v6l8 6q-68 60 -68 74l38 57q-28 45 -69 65 l-8 19q129 17 129 30l-7 6h-75zM600 545q43 20 160 20q50 77 50 130h20q0 -80 70 -140q-41 -70 -100 -70q-200 35 -200 60zM1000 1013h10l10 50l-20 20v-70zM1020 675v10l10 10h20q20 0 20 -30l30 -10l-10 -10v-20l20 -30l-20 -20zM1030 285v10l10 10q0 20 40 20v40h20v-210 h-10l-40 30l20 20v50q0 20 -30 20zM1070 -284h10l10 -50l-10 -10h-10v60zM1070 685v30l40 10v-10l-30 -30h-10zM1070 1245l90 -70l30 20q0 100 -80 100q0 -30 -40 -30v-20zM1200 965l10 10h10l20 -20l-10 -10h-10z" />
<glyph unicode="m" horiz-adv-x="1391" d="M-185 1027l10 10h10l20 -20l-10 -10h-10zM-115 -293l10 70v120l20 20l10 -10v-140l10 -50l-10 -10l50 -10l10 10l100 -10h180q130 0 130 -30q-33 -30 -170 -30h-20l-10 10l-10 -10l-290 20l-10 10v10l10 10v10zM-115 657h10l-10 30l10 30l-10 60v60l30 30l110 -10v-20 h-30q-73 0 -80 -30l10 -340l-10 -290h-20v410zM15 -223l10 10v10l70 -10h70q0 20 -100 20v10l-10 -10h-10l-10 10h-10q20 243 20 800v70l20 70q-7 80 -20 80q30 37 30 260l-10 390l30 10v10h-20v20q47 0 70 20h300q45 0 100 -580l10 -10q7 -70 30 -70l10 10h10 q0 -160 40 -200v-20l-20 -30v-10l10 -10v-10l60 20q20 -23 30 -110h20l30 20h10l-30 -230l10 -40l-10 -120l50 -330l-10 -30h-20l-30 30l-70 -10h-10l-100 30l-50 50l-170 770h-10l-20 -20l20 -400l-10 -30q30 -167 30 -300l-10 -10h-10l-140 40l-10 -10v-10q12 -19 230 -90 v-20l-120 10l-30 -30l20 -20l-40 -20l-230 -20v40zM85 1627v20h50v-20h-50zM275 747l10 -30h20q20 0 20 30l-10 30l-30 -30h-10zM435 -173q370 -80 370 -110l-10 -10h-10q-350 80 -350 110v10zM605 -323l10 10v10q120 -12 120 -40v-10l-130 20v10zM625 937v10 q88 284 280 400q57 0 90 110l120 10h70q30 -10 30 -60v-230q110 -106 110 -130l-10 -210l10 -10v-10l-10 -10l30 -450v-550q0 -22 -70 -40l-230 20h-80l-20 20v220l10 90l-10 100v240l10 10l-10 10l10 270v30l-10 150l-50 -10l10 -40l-80 -210h-10q-77 145 -150 150l-20 50 l10 10h30l40 -30h10l10 50q0 17 -100 60zM665 1487v20q32 200 70 200q60 -50 140 -60q0 -30 50 -30v-20l-70 -10l-110 30l-60 -130h-20zM965 1617h10l50 -10l160 50l20 -20v-40l-20 -20l-10 10v10q-27 0 -80 -50l-70 20l-30 -10zM1255 1697v10l10 10h10l10 -10v-10l-10 -10 h-10zM1345 1647v20l50 10v-30h-50z" />
<glyph unicode="n" horiz-adv-x="1105" d="M-235 1610v20l50 10v-30h-50zM-165 1480q101 100 150 100h10v-30l-30 -40l20 -80l-50 -50q0 30 -30 30l-10 10v10l30 50v20h-10zM-95 1630l10 10h30l30 -30l-10 -10h-10q-50 12 -50 30zM-75 850v10l20 20l10 -10v-10l-20 -20zM5 1440v10q50 20 50 60h60l80 10l80 -10 l60 20q174 -347 240 -670q0 -47 100 -230q38 -90 70 -90v220l-10 60l10 10l-10 200v300l-10 40l10 10v10l-10 90q7 50 30 50h240l10 -10h10l-10 -360l20 -350h-10l10 -10v-70q50 -3 50 -30l-10 -120l10 -30l-10 -40v-20l10 -30l-10 -50v-120l10 -500q-21 -24 -140 -50 l-20 20h-50l-170 -50h-30q-59 0 -200 480l-110 310h-30l-10 -40l10 -340v-290l10 -50l-30 -20h-120l-100 -10l-20 20l20 570l-20 390v160l-10 40q10 120 30 120q-10 390 -40 390l-30 -10zM135 1640v20h30v-20h-30zM265 1640h10l20 -20v-10h-20zM705 350l40 -140h20l10 50v70 q0 73 -30 80h-10q-30 -10 -30 -60zM1015 -410l40 40l10 -10v-10l-30 -20h-20z" />
<glyph unicode="o" horiz-adv-x="1053" d="M-57 -334l10 100v130l20 20h10l20 -20q0 -20 -30 -20q49 -39 50 -90l-20 -40l10 -40l-10 -10l40 -20l110 10l40 -10l10 10l170 -10h270v-20h-30l-600 -30zM-47 1016l20 20h10l30 -30l-10 -30h-30zM-37 1526l20 20l140 -10v-20l-120 -10h-20zM-27 1336v110h20v-50l-10 -10 l20 -40l-10 -10h-20zM43 656q0 374 100 610q108 169 350 240h20l30 -20l10 10h90q275 0 360 -380l10 -80l-20 -130q80 -10 80 -30v-10q0 -20 -60 -40l-10 -30l-10 -200l20 -40q0 -621 -380 -760l-90 -10q-289 0 -440 460q-60 169 -60 410zM373 566q0 -410 180 -410 q100 0 150 210l-10 70v100l10 300q-110 10 -110 30t100 30v80q-18 190 -110 190q0 -24 -130 -100q-60 -96 -60 -140l10 -70l-20 -190l10 -30zM663 -334q0 27 420 60l-10 40l10 50l-10 60l30 20l20 -20l30 10v-10q0 -210 -70 -210l-20 -20l-50 10l-10 -10l10 -10v-30 l-100 -10h-40q-20 0 -20 40h-30l-110 20h-50v10zM783 896h30v40h-10l-20 -20v-20zM823 956h20l40 30l80 -30h10l-10 10v10l10 40l-40 20h-20q-77 0 -90 -40v-40zM1013 1476l10 10h50q50 -3 50 -20l-20 -70l10 -10h10q-30 -48 -30 -90h-20v100q0 41 -60 80zM1083 -14v30h20 v-30h-20zM1083 1616q10 120 30 120l80 -10v-200l-20 -20q-63 0 -80 110h-10zM1133 1556h10l10 10v30h-20v-10l10 -10v-10z" />
<glyph unicode="p" horiz-adv-x="955" d="M-136 887v28h29l9 -38l-9 -9h-10zM-126 -217h9l10 -9l9 9h10l19 -19l-10 -10h-9q-38 15 -38 29zM44 40l9 285l-9 371v58l19 28l-10 219l10 57l-19 276q9 238 37 238h171l104 -9l75 9l29 -28l9 9h113q175 0 284 -247q47 -109 47 -276v-67q0 -363 -340 -495 q-170 0 -170 -57q-19 -152 -19 -504v-172l-19 -19h-9q-68 58 -104 58h-189l-19 19v95l9 9l-9 10v28l9 38zM337 1134l19 -66l-10 -10l19 -181v-38q9 -28 57 -28q170 37 170 162v76q-16 190 -123 190h-9q-123 0 -123 -76v-29zM611 430l9 9h29l28 -28l-9 -10h-10q-47 13 -47 29 zM781 1629v10q19 47 217 47q19 -19 29 -133l-10 -9h-56l-48 9l10 48q-76 17 -76 38l-9 -10h-57zM894 411v19l114 38v-19q-13 -38 -85 -38h-29zM928 -209l13 10h13l25 -20l-12 -10h-13zM998 1420v9l19 19l10 -9v-10l-10 -9h-19zM1046 1677v9l9 10h10l9 -10v-9l-9 -10h-10z " />
<glyph unicode="q" horiz-adv-x="1099" d="M-56 1570l30 19l10 -9l68 9h176v-19h-19q-95 0 -138 -46l-49 9l-28 -66l9 -28h-9l-10 -9h-10q-20 35 -30 140zM-46 -40l20 19v-57h-20v38zM-46 -171l20 18l10 -9v-9l-20 -19l-10 9v10zM42 493v47l20 19l-10 140v38q0 215 29 215l39 10h177l49 9q-31 35 -216 94l-10 9v9 q80 306 245 413q128 56 167 56h69q211 0 382 -309q88 -266 88 -441v-121q-39 -33 -39 -66v-56q0 -377 -225 -608v-10q24 -19 127 -19l10 -9v-9l-10 -57l10 -9q-20 -272 -49 -272h-10q-194 0 -343 225q-500 102 -500 702zM62 -199l9 9h10l20 -19l-20 -18zM81 -265l20 19h10 v-10l-10 -9v-9h10l156 18l10 -9v-9l-157 -38l-39 38v9zM365 662l10 -113v-37l20 -19l-10 -65v-28q30 -225 167 -225h29q137 121 137 365q0 163 -39 431q49 9 49 37q-31 197 -137 197h-20q-117 0 -157 -234q-32 0 -49 -309zM718 1580v19h49q128 0 128 37h10l78 -28l127 19 l20 -66l-20 -28l10 -9v-19l-19 -19h-10v28l10 10v9q-23 19 -118 19l-29 28h-98l-10 9l-10 -9h-118zM1061 -162h59q0 -21 -49 -28l-10 9v19zM1091 737v28l10 65h19v-84l-19 -19zM1091 877v19h29v-9l-19 -19zM1101 -68h19v-56h-19v56z" />
<glyph unicode="r" horiz-adv-x="1083" d="M-13 1174v10q0 24 80 40v40q0 87 70 300l270 -20l60 10q184 -30 295 -22h10q182 -8 255 -258l20 -220q0 -306 -200 -470v-20q97 -195 160 -670q0 -60 80 -140l-10 -10h-10q-390 -10 -390 30q-40 76 -40 150h10l-50 390l10 50l-30 40q-180 -6 -180 -40v-70l10 -60l-10 -30 l10 -10l-10 -70v-60l10 -60l-10 -40l10 -30l-10 -50l10 -110l-30 -20h-250l-30 -20l-30 100l10 90l-10 10v10l20 290q0 23 -2 43l-8 217l-20 110l30 20l-20 250l10 60v210q0 18 -90 30zM47 -355l40 20h40l120 -30l10 10h20v-10l200 10h10q260 0 260 -30l-50 -20l-70 10h-60 l-330 10l-140 -10l-50 20v20zM307 834l20 -20l10 30l-10 110h-10l-10 -70v-50zM307 1054h30q20 0 30 60h20l20 -110l-10 -110q48 -50 110 -50h50q129 0 150 240v40q-15 110 -50 110q-260 -15 -260 -60l-10 -40l-50 20l-30 -10v-20l10 -40zM677 364l50 -10h10v10l-20 20 l-40 -10v-10zM697 824q62 -110 130 -110l40 10q0 70 -120 120l-20 20l-30 -30v-10zM837 1144l10 -10h10l10 10v10l-10 10h-10l-10 -10v-10zM1047 464q30 0 30 40h10q40 -30 120 -30l10 10v10l-10 10l-10 -10h-30l-20 20q0 43 50 100l20 -20l10 110h-10l-10 -10h-10l-10 10 v10l10 40l-10 30l20 20l-20 110v80l20 20h30l20 -20v-210q0 -70 -20 -70l20 -110l-10 -60v-20l10 -40q0 -40 -70 -40q-10 -40 -40 -40q-99 41 -100 60zM1137 314v60h20v-60h-20zM1147 64v30l40 40l20 -20v-60l-20 -20q-40 15 -40 30zM1147 -236l10 10h20l20 -20l-10 -10h-20 zM1147 1494v20h60l10 -10l10 10h10l20 -20v-60l-10 -10l10 -10v-180l10 -40l-20 -100h-20q0 56 -50 210l30 40h20v140z" />
<glyph unicode="s" horiz-adv-x="1074" d="M-91 517q20 40 60 40q10 -60 90 -60v-20h-60l-50 -10zM-71 -203h10q97 -30 170 -30h10v-20l-100 -10h-70l-20 20v40zM-61 217v20h40v-20h-40zM-41 1487v10l30 30h100l50 -10v-20q-150 -14 -150 -60h-20zM-21 977q10 70 30 70l10 -10q74 304 240 420q123 80 230 80l10 -10 l50 10h90q0 -60 40 -60q280 -186 280 -450v-10q-13 -40 -90 -40h-210l-90 120l-70 20h-20q-140 -35 -140 -130q0 -103 170 -140q257 0 370 -190q70 -57 140 -350l10 -10v-40q0 -293 -290 -440q-82 -40 -210 -40h-70q-225 52 -350 220q-80 175 -80 230l20 20h160l170 10 q55 -90 140 -90h40q90 0 120 130q0 180 -300 180q-139 40 -300 260h-10l-60 -10l-20 30v40zM909 1377v10l20 20l10 -10v-20h-30zM959 1527v10l20 20h20q130 0 180 20v-20h-20v-20l20 -20l-10 -100v-90l-10 -10l10 -10v-170l50 10l10 -10v-10q-31 0 -80 -200l-20 -20l10 -10 l-20 -110l10 -30l-10 -80h-20l-20 110q23 0 30 130q-17 20 -140 30v20l180 20q0 20 -30 20v10l20 20q-13 305 -30 350l20 20q-34 0 -50 70q-30 0 -70 50h-50zM969 -203q1 14 140 50l20 -30l-30 -30h-130v10zM1089 227v10l10 10l-10 10v20l20 -20v-30h-20z" />
<glyph unicode="t" horiz-adv-x="964" d="M-18 1093q49 0 68 148l-10 29l29 10v50l-9 167l29 20l185 -20l106 10h59l388 -10l10 -10v-39l-29 -178h10l87 10l20 -29q0 -128 19 -178l-10 -10h-58l-214 -10v-29l49 -355q-20 -45 -20 -129v-207q49 0 49 -20v-39l19 -463q0 -20 -408 -30l-9 10v99l-10 335l19 29 l-29 641l29 109v20l-29 29l-223 -19q-117 41 -117 59zM196 -337h9l10 -10l49 10h107l19 -20l-10 -10h-29l-146 -10l-9 10v30zM516 1310l20 -20h10v30h-30v-10zM701 -327h19l117 10v-30h-136v20z" />
<glyph unicode="u" horiz-adv-x="1080" d="M-277 1605v19q0 29 231 49h20v-20l-100 -19l30 -39l10 10h20v-19l-10 -39l10 -39h-10l-20 20h10q-67 87 -120 87v-10l-10 -10l10 -9v-20h-20q0 25 -40 29zM-256 1470v9h50l50 10l20 -58l-20 -19l-10 58q-20 0 -20 -29l-10 -10h-10zM-166 753q0 51 60 78l10 -10v-10 l-10 -9l10 -10v-77l-30 -39h30l50 10v-29q-74 -8 -100 -29h-10v67zM-156 841v145h10q23 0 30 -78h-20v-19q30 0 30 -48h-50zM-146 1005v48h20l-10 -9l10 -10v-29h-20zM43 792l20 252l-20 493l30 20h210l100 9l20 -19l-10 -58l20 -619l-50 -291l10 -9v-49l-10 -10l10 -9v-29 q0 -329 151 -329h10q180 0 180 513l-20 232l10 10l10 29h10l-90 600l10 9h130q220 0 220 -48q30 -437 70 -561q0 -29 -40 -29l10 -242v-58l-20 -242q9 -53 60 -97l-80 -126l20 -29l-20 -58h10l30 19l20 -29v-9l-40 -58h-20q-10 67 -30 67h-20l10 -9v-10l-10 -10v-9l40 -68 v-29l-20 -19q-24 0 -30 68l10 9l-60 20q-18 0 -30 -87h-10l-20 19q-181 -136 -290 -136q-368 0 -471 561l-10 39l10 223v164zM53 -272q13 48 30 48q130 -22 130 -38l-120 -29v9l-10 -9h-10zM213 1702v19l140 20h10l60 -68v-10h-10q-45 49 -130 49zM363 -98h10q71 10 71 29 v10h-21zM554 -40l30 -38h10l-10 67h-10q-20 0 -20 -29zM864 -272l200 10l20 38h20l10 -48l-40 -39h-30l-10 10l-10 -10h-10l-90 20h-60v19zM884 473q74 19 120 87l-10 10l-110 -78v-19zM1094 540l10 10h30v-10l-20 -19z" />
<glyph unicode="v" horiz-adv-x="1111" d="M-186 1532v10q37 30 160 50v-10q0 -20 -30 -20l-10 -30l-10 10h-10l-90 -20zM-56 1262v20h20v10l-10 250h30l120 40q13 -50 30 -50h60l100 10q77 -151 110 -280l-10 -110q0 -89 60 -160l60 -360l-60 -20l-10 10l-30 -10q6 -60 30 -60l70 30l40 -30h20q140 441 140 830 v100q0 25 40 30l130 -10l210 20l10 -10v-20q0 -439 -350 -1330q-52 -235 -130 -430q-80 7 -80 20l-10 -10h-30l-40 10l-40 -10q-59 0 -70 200q-130 601 -220 850q-69 0 -160 410l40 30zM84 -138l10 10h10l10 -10v-10l-10 -10h-10l-10 10v10zM224 1072l10 -70q20 0 20 30 l-10 70h-20v-30zM264 932h10l20 20l-20 20l10 50l-20 -20v-70zM514 322l20 -20l10 10l10 30h10l-10 30h-20l-20 -20v-30zM964 262v10q0 17 120 40q53 40 90 40h10l30 -30v-30l-20 -20h-100l-30 -30zM1114 1542v20l90 10l10 -10v-10l-20 -20h-30z" />
<glyph unicode="w" horiz-adv-x="1305" d="M-205 497v20q200 0 200 60l10 120h20l10 -70v-70q0 -23 80 -30l20 30q-46 280 -90 280l10 30l-60 370l70 40l-50 230l30 20h80l50 -10v-250q20 3 70 240l10 10h10q36 0 60 -320l30 -30v-50q10 -280 50 -280l-10 -80q0 -79 40 -170l-10 -10v-10l10 -40l-10 -10v-10l30 -40 l10 10h10l-10 70q45 500 80 500h110l70 10q27 -23 80 -330q32 0 120 -440l10 -10v-10h10q34 0 40 180q-30 7 -30 80l-30 710v260l30 30h30v-30l270 -10l10 -10v-10l-20 -340v-60q0 -90 60 -90q-70 -537 -190 -1069q-176 -130 -270 -130h-10l-20 20l10 90h-10q-50 0 -50 50 q-26 379 -60 379q-18 0 -120 -409q-36 0 -50 -60h-20v-10l-70 10h-20l-180 -70h-20q-30 10 -30 60v50q0 122 -30 219l20 20q-44 390 -70 390l-70 -60h-10v-150l10 -70l-20 -20v-90q0 -20 40 -20v-10l-60 -40h-10v20h-50l-110 -10l-30 10v20l150 10h10l20 20v70l-20 20h-70 v20q80 10 80 30v20l-10 150l-40 10v10l20 30v10h-150zM-25 -242q14 230 40 230h10v-30l-10 -10l10 -10v-90l-10 -70l50 -10v-20q-40 0 -40 -20v-10l50 -10h240l60 -10l50 10h120l20 -20l-20 -20l-220 10l-320 -10l-10 30l10 10v10q-15 40 -30 40zM285 707q0 -42 40 -110h10 q23 0 30 50q-23 60 -40 60h-40zM815 -352h20v-10q325 33 360 70h30l20 -20q-90 -8 -90 -50l-40 10q-75 -40 -270 -40l-30 30v10zM925 1647l10 10h10l70 -10l-20 -20h-50zM1145 1617v20l120 -10h100l50 10l10 -10v-40l-40 -80v-120l-10 -100h-20v70q0 160 -30 160h-140v20h10 l170 20q0 24 -220 60zM1295 1027q3 70 20 70l-10 30l30 100h20v-10l-40 -190h-20zM1325 867v20l20 20h10v-30l-20 -20z" />
<glyph unicode="x" horiz-adv-x="1118" d="M-265 -194q0 71 140 240h10l-110 -210h40v10l-10 10v10l10 10h10l60 -60l-20 -20h-110l-10 10h-10zM-245 1036v10q0 24 120 50l10 -10v-30l-120 -20h-10zM-225 386v10q120 561 170 620l-10 40q28 200 50 200l20 -70q-16 0 -30 -60l20 -190l-50 -60q0 -61 -50 -110l20 -20 l50 10l10 -10v-10q-30 -23 -30 -100l-10 -10h-10q0 60 -30 60l-90 -280h10q170 -42 170 -70l-10 -10h-10q-190 24 -190 60zM-25 -184q90 340 260 690q90 128 90 180q-57 0 -110 200q-44 58 -90 270q-14 0 -40 130q-16 83 -80 130v60l10 10l30 10v10l50 -10l220 10l20 -30 l10 10h20l30 -20l-10 -30q0 -171 110 -510h20q57 24 220 620l-10 50l30 20h10l180 -90l170 -50v-20q-23 0 -50 -110l-50 -110l30 -110l-180 -380v-20l100 -200l10 -40l-20 -30l90 -290q0 -64 130 -330l-10 -10h-350q-60 82 -210 590q-15 40 -30 40q-85 -105 -110 -200 l10 -10v-10l-110 -420l-10 -10h-360l-10 10h-10zM75 606v30h20v-30h-20zM315 1606v30h70v-20zM375 286l10 -10v-10l40 30v10q0 23 -50 30v-50zM405 -314l100 30v-30l-20 -20h-80v20zM505 646q108 0 170 80v10l-30 10l-30 -10v10l-20 20h-30l-30 -30v-10l10 -50h-10l-10 10 h-10l-10 -10v-30zM515 -194q0 23 110 30l10 -10v-20l-100 -10h-20v10zM545 586l50 -10l100 30v30h-10l-40 -10l-10 10l-30 -10l-20 -20l-30 10l-10 -10v-20zM855 1166h10l20 20l-10 10h-20v-30zM885 1286l20 -20l40 40q0 20 -30 20l-30 -10v-30zM925 1366q30 10 30 60h-30 v-60zM1045 1596v20h50l70 10l10 -10v-10l-60 -30z" />
<glyph unicode="y" horiz-adv-x="972" d="M-107 936v10l20 20h30l100 -10v-20l-100 -20h-30zM-67 126v20q3 100 20 100l-10 10v50h20l40 -110l50 10h60v-10q-44 -80 -170 -80zM-27 1486q224 120 350 120q150 -486 150 -590q0 -20 -100 -50v-20h40l40 10l120 -40q0 30 20 30h10v-10l-10 -30q54 -58 160 -90v10 q-60 23 -60 40l10 10v10l-10 10h-10l-40 -10q-7 60 -40 60v10q8 87 30 90l-10 50q110 460 140 460q220 -60 220 -90q-90 -196 -90 -290l110 50l20 -20q0 -81 -140 -250q0 -25 -100 -160v-10l20 -30l-30 -80l10 -130h-10l10 -10v-20q-80 -108 -80 -140v-570q-10 -30 -60 -30 h-200q-110 0 -110 30v150l-10 240l10 120q0 56 -60 110q-80 292 -130 410l10 90l-30 30l10 30zM503 1606v10l20 20l70 -20v-20l-60 20z" />
<glyph unicode="z" horiz-adv-x="995" d="M38 1087v30h47l-28 120v30l9 10l-9 10v190l18 30l75 -10q290 0 810 40l18 -30v-130l-9 -50q56 0 65 -80v-80q0 -16 -56 -40v-100l-46 -120l9 -10q-46 -6 -46 -50q-87 -106 -317 -530l-158 -230v-10h18v-10l56 10l401 10l9 -10v-169l9 -100h19v20h19v-20l-19 -20h-261 l-102 10l-10 -10h-9l-93 10l-363 -20l-37 30v299q0 41 65 110q0 49 214 460q139 289 261 430v30h-10l-270 -20l-28 -20h-139zM932 227v10l9 70l-9 10v10q0 50 46 50l28 110q-18 0 -28 60l38 60l-10 10l19 140q0 20 -28 20l-9 10v20h18q65 -29 168 -120v-10h-19l-46 10 l-9 -10v-10l9 -70l-9 -40l9 -10v-10l-56 -180l9 -30l-9 -10l-9 10h-19q0 -33 -84 -110zM1017 1748v10l9 10h19v-10l-19 -20z" />
<glyph unicode="{" horiz-adv-x="684" />
<glyph unicode="|" horiz-adv-x="1161" d="M-136 1532v10q37 30 160 50v-10q0 -20 -30 -20l-10 -30l-10 10h-10l-90 -20zM-6 1262v20h20v10l-10 250h30l120 40q13 -50 30 -50h60l100 10q77 -151 110 -280l-10 -110q0 -89 60 -160l60 -360l-60 -20l-10 10l-30 -10q6 -60 30 -60l70 30l40 -30h20q140 441 140 830v100 q0 25 40 30l130 -10l210 20l10 -10v-20q0 -439 -350 -1330q-52 -235 -130 -430q-80 7 -80 20l-10 -10h-30l-40 10l-40 -10q-59 0 -70 200q-130 601 -220 850q-69 0 -160 410l40 30zM134 -138l10 10h10l10 -10v-10l-10 -10h-10l-10 10v10zM274 1072l10 -70q20 0 20 30l-10 70 h-20v-30zM314 932h10l20 20l-20 20l10 50l-20 -20v-70zM564 322l20 -20l10 10l10 30h10l-10 30h-20l-20 -20v-30zM1014 262v10q0 17 120 40q53 40 90 40h10l30 -30v-30l-20 -20h-100l-30 -30zM1164 1542v20l90 10l10 -10v-10l-20 -20h-30z" />
<glyph unicode="}" horiz-adv-x="684" />
<glyph unicode="~" horiz-adv-x="1196" />
<glyph unicode="&#xa2;" horiz-adv-x="1139" />
<glyph unicode="&#xa3;" horiz-adv-x="1139" />
<glyph unicode="&#xa5;" horiz-adv-x="1139" />
<glyph unicode="&#xa9;" horiz-adv-x="1509" />
<glyph unicode="&#xad;" />
<glyph unicode="&#xae;" horiz-adv-x="1509" />
<glyph unicode="&#xb4;" />
<glyph unicode="&#x2000;" horiz-adv-x="895" />
<glyph unicode="&#x2001;" horiz-adv-x="1791" />
<glyph unicode="&#x2002;" horiz-adv-x="895" />
<glyph unicode="&#x2003;" horiz-adv-x="1791" />
<glyph unicode="&#x2004;" horiz-adv-x="597" />
<glyph unicode="&#x2005;" horiz-adv-x="447" />
<glyph unicode="&#x2006;" horiz-adv-x="298" />
<glyph unicode="&#x2007;" horiz-adv-x="298" />
<glyph unicode="&#x2008;" horiz-adv-x="223" />
<glyph unicode="&#x2009;" horiz-adv-x="358" />
<glyph unicode="&#x200a;" horiz-adv-x="99" />
<glyph unicode="&#x2010;" />
<glyph unicode="&#x2011;" />
<glyph unicode="&#x2012;" />
<glyph unicode="&#x2013;" horiz-adv-x="1139" />
<glyph unicode="&#x2014;" horiz-adv-x="2048" />
<glyph unicode="&#x2018;" horiz-adv-x="455" />
<glyph unicode="&#x2019;" horiz-adv-x="455" />
<glyph unicode="&#x201c;" />
<glyph unicode="&#x201d;" />
<glyph unicode="&#x2022;" horiz-adv-x="717" />
<glyph unicode="&#x2026;" horiz-adv-x="2048" />
<glyph unicode="&#x202f;" horiz-adv-x="358" />
<glyph unicode="&#x205f;" horiz-adv-x="447" />
<glyph unicode="&#x20ac;" horiz-adv-x="1139" />
<glyph unicode="&#x2122;" horiz-adv-x="2048" />
<glyph unicode="&#xe000;" horiz-adv-x="1635" d="M0 1635h1635v-1635h-1635v1635z" />
<glyph unicode="&#xf001;" horiz-adv-x="1024" />
<glyph unicode="&#xfb01;" horiz-adv-x="1024" />
<glyph unicode="&#xf002;" horiz-adv-x="1024" />
<glyph unicode="&#xfb02;" horiz-adv-x="1024" />
<glyph unicode="&#xfb03;" horiz-adv-x="2625" d="M1709 -39q22 -80 80 -80l60 -10l40 20l-10 10v10l10 10v10l-70 80l-30 -20h-60q0 -30 -20 -30zM1739 1698v26h159l29 -26l-14 -14h-101zM2042 1684v14l29 26h188l29 -26l-15 -14h-231zM2049 336v10l20 20h30v-20zM2054 1160v360l20 20l440 -10l20 -20v-160l10 -200 q-80 -20 -80 -40v-270l50 -630q20 0 20 -50v-30q0 -14 -80 -40l-30 10l-50 -10l-70 10q-150 -10 -150 -40l10 -10h160l200 10l10 -10v-249l-10 -10v-10l-270 10h-140q-25 0 -30 40l-20 219l10 10h10l-10 50v90q0 20 100 30v50l-40 640l10 220h-70zM2314 820h20v20h30v-10 l-10 -10v-10l60 -60h10l10 120v10l-20 20l10 50v10q-47 0 -80 50l-10 -10v-10l10 -30zM2373 -330q0 42 260 90q39 28 190 70h30v-20q-376 -114 -380 -130l-10 -10v-10zM2403 1605v27h29v-53zM2432 1632l29 26h29v-26h-58zM2635 1529q0 -87 70 -130h10v160l10 10 q0 83 -60 130l-30 -100v-70zM2658 1292q30 -90 80 -90l-20 110l-30 -20l-30 10v-10zM2756 800q100 17 100 40l-10 10h-10q-80 -24 -80 -40v-10zM2786 870h20l30 10l-20 20zM2926 850l10 -10h10l10 90l-10 10h-10l-10 -30l10 -50zM3036 1160q26 0 40 -80q-26 0 -40 80z M3086 1040v30l20 -20v-10h-20zM848 -279q20 130 50 130h30q20 0 20 -30l60 -180l-10 -10h-50l-30 30l30 50v10h-10q0 -30 -50 -30h-10zM1028 961l30 190v30l-20 330l40 20q716 20 800 40l50 -410q23 0 40 140l10 10h10q20 -39 20 -110v-130q-10 -30 -60 -30l-40 110 l-560 -30v-10l20 -50l-10 -170l10 -10h10l360 10l20 -80l10 10h40l30 -30v-20q-10 -30 -60 -30h-30v-120q0 -20 -120 -50q-77 0 -250 -230l-20 -50v-10l20 -30v-10l-10 -60l30 -100v-140l10 -140q-13 -50 -30 -50l-300 -10l-30 70l10 100zM1058 -309q0 25 40 30l70 -10v-20 l-100 -10h-10v10zM1068 -370l10 10l50 -10l540 20h40v10q-50 0 -50 60l10 10h10l40 -40l60 10l10 -10v-70q-6 -30 -80 -30h-110l-60 10l-10 -10l-50 10h-240l-110 10l-40 -10zM1558 91v20q170 0 170 60v10h20q0 -60 20 -60h130l60 10l10 -10l50 10h20l10 -10h10l-10 -50v-10 l30 -30l20 20l92 -37l1 -30l-43 -43h-20q-60 0 -60 40h-10l-10 -170l10 -30l-10 -10h-50l20 100l-20 190v10q-33 0 -70 30h-30q0 -30 -20 -30h-20v30q-90 0 -90 -150l-10 -70h-10l10 -10v-20h-20v40l-10 -10h-10v20h20v30q-79 160 -180 160zM1718 281v60h20l10 -100v-10h-20 zM1758 761h30l30 30l-10 10h-20l-30 -30v-10zM1998 -309q6 60 30 60q0 -22 60 -70l-10 -10v-10q-80 10 -80 30zM2008 1621l10 10l40 -10v-20h-30zM2168 1601l10 10h10l10 -10v-20h-10zM-135 -279q20 130 50 130h30q20 0 20 -30l60 -180l-10 -10h-50l-30 30l30 50v10h-10 q0 -30 -50 -30h-10zM45 961l30 190v30l-20 330l40 20q716 20 800 40l50 -410q23 0 40 140l10 10h10q20 -39 20 -110v-130q-10 -30 -60 -30l-40 110l-560 -30v-10l20 -50l-10 -170l10 -10h10l360 10l20 -80l10 10h40l30 -30v-20q-10 -30 -60 -30h-30v-120q0 -20 -120 -50 q-77 0 -250 -230l-20 -50v-10l20 -30v-10l-10 -60l30 -100v-140l10 -140q-13 -50 -30 -50l-300 -10l-30 70l10 100zM75 -309q0 25 40 30l70 -10v-20l-100 -10h-10v10zM85 -370l10 10l50 -10l540 20h40v10q-50 0 -50 60l10 10h10l40 -40l60 10l10 -10v-70q-6 -30 -80 -30 h-110l-60 10l-10 -10l-50 10h-240l-110 10l-40 -10zM575 91v20q170 0 170 60v10h20q0 -60 20 -60h130l60 10l10 -10l50 10h20l10 -10h10l-10 -50v-10l30 -30l20 20l92 -37l1 -30l-43 -43h-20q-60 0 -60 40h-10l-10 -170l10 -30l-10 -10h-50l20 100l-20 190v10q-33 0 -70 30 h-30q0 -30 -20 -30h-20v30q-90 0 -90 -150l-10 -70h-10l10 -10v-20h-20v40l-10 -10h-10v20h20v30q-79 160 -180 160zM735 281v60h20l10 -100v-10h-20zM775 761h30l30 30l-10 10h-20l-30 -30v-10zM1015 -309q6 60 30 60q0 -22 60 -70l-10 -10v-10q-80 10 -80 30zM1025 1621 l10 10l40 -10v-20h-30zM1185 1601l10 10h10l10 -10v-20h-10z" />
<glyph unicode="&#xfb04;" horiz-adv-x="2837" d="M2026 -204l20 439l-10 630q50 371 50 520l-10 60q13 60 30 60l350 10q12 -60 100 -60l37 6l12 -32q-5 3 -9 6l-80 -40l-30 10q-28 -71 -90 -460l-70 -260l-10 -10l-30 -80h10q90 0 90 -50l10 -10l-10 -50v-120l-10 -40l10 -10l-20 -230l50 -10l40 10l10 -10l190 20h60 q70 0 70 -90v-119q0 -110 -30 -110h-190l-10 10l-10 -10l-50 10l-240 -10h-200zM2066 1525v20h100v-20h-100zM2266 1535v20h40v-20h-40zM2366 1525v20h30v-20h-30zM2509 1220v11h7l233 6l15 -17l-8 -17h30l60 -12h38l142 -11l8 6v5l37 -5h45v-12h-67v-28l-38 -35l53 -63 q-12 -23 -23 -23l8 -5v-6l-23 -17h-82q-22 0 -60 80h-30v11q52 0 52 29l8 6h7l30 -18l53 6v6q-60 7 -60 34l-23 -5q-52 0 -52 34l-8 -6h-22l-8 6l-7 -6h-23l-7 6h-8q-21 0 -30 -126q36 -57 180 -97l38 -6l22 6l8 -6q-13 -80 -38 -80l-22 -51h7l30 5h8l15 -11l-45 -12l-15 12 h-8q0 -34 -45 -57l-45 5l-97 -11l-90 11h-38l-15 12v6q23 0 23 17l7 5h23l15 -11l45 34l37 12h8l67 -52l8 6h7l-7 29l45 28l7 -6v6l-30 29l8 6v17l-23 -12l-7 6v11h30v6q0 12 -23 12v17h23v28q-30 0 -53 -74l-22 -17q-30 0 -83 74v6l8 6q-68 60 -68 74l38 57q-28 45 -69 65 l-8 19q129 17 129 30l-7 6h-75zM2566 545q43 20 160 20q50 77 50 130h20q0 -80 70 -140q-41 -70 -100 -70q-200 35 -200 60zM2966 1013h10l10 50l-20 20v-70zM2986 675v10l10 10h20q20 0 20 -30l30 -10l-10 -10v-20l20 -30l-20 -20zM2996 285v10l10 10q0 20 40 20v40h20 v-210h-10l-40 30l20 20v50q0 20 -30 20zM3036 -284h10l10 -50l-10 -10h-10v60zM3036 685v30l40 10v-10l-30 -30h-10zM3036 1245l90 -70l30 20q0 100 -80 100q0 -30 -40 -30v-20zM3166 965l10 10h10l20 -20l-10 -10h-10zM848 -279q20 130 50 130h30q20 0 20 -30l60 -180 l-10 -10h-50l-30 30l30 50v10h-10q0 -30 -50 -30h-10zM1028 961l30 190v30l-20 330l40 20q716 20 800 40l50 -410q23 0 40 140l10 10h10q20 -39 20 -110v-130q-10 -30 -60 -30l-40 110l-560 -30v-10l20 -50l-10 -170l10 -10h10l360 10l20 -80l10 10h40l30 -30v-20 q-10 -30 -60 -30h-30v-120q0 -20 -120 -50q-77 0 -250 -230l-20 -50v-10l20 -30v-10l-10 -60l30 -100v-140l10 -140q-13 -50 -30 -50l-300 -10l-30 70l10 100zM1058 -309q0 25 40 30l70 -10v-20l-100 -10h-10v10zM1068 -370l10 10l50 -10l540 20h40v10q-50 0 -50 60l10 10 h10l40 -40l60 10l10 -10v-70q-6 -30 -80 -30h-110l-60 10l-10 -10l-50 10h-240l-110 10l-40 -10zM1558 91v20q170 0 170 60v10h20q0 -60 20 -60h130l60 10l10 -10l50 10h20l10 -10h10l-10 -50v-10l30 -30l20 20l92 -37l1 -30l-43 -43h-20q-60 0 -60 40h-10l-10 -170l10 -30 l-10 -10h-50l20 100l-20 190v10q-33 0 -70 30h-30q0 -30 -20 -30h-20v30q-90 0 -90 -150l-10 -70h-10l10 -10v-20h-20v40l-10 -10h-10v20h20v30q-79 160 -180 160zM1718 281v60h20l10 -100v-10h-20zM1758 761h30l30 30l-10 10h-20l-30 -30v-10zM1998 -309q6 60 30 60 q0 -22 60 -70l-10 -10v-10q-80 10 -80 30zM2008 1621l10 10l40 -10v-20h-30zM2168 1601l10 10h10l10 -10v-20h-10zM-135 -279q20 130 50 130h30q20 0 20 -30l60 -180l-10 -10h-50l-30 30l30 50v10h-10q0 -30 -50 -30h-10zM45 961l30 190v30l-20 330l40 20q716 20 800 40 l50 -410q23 0 40 140l10 10h10q20 -39 20 -110v-130q-10 -30 -60 -30l-40 110l-560 -30v-10l20 -50l-10 -170l10 -10h10l360 10l20 -80l10 10h40l30 -30v-20q-10 -30 -60 -30h-30v-120q0 -20 -120 -50q-77 0 -250 -230l-20 -50v-10l20 -30v-10l-10 -60l30 -100v-140l10 -140 q-13 -50 -30 -50l-300 -10l-30 70l10 100zM75 -309q0 25 40 30l70 -10v-20l-100 -10h-10v10zM85 -370l10 10l50 -10l540 20h40v10q-50 0 -50 60l10 10h10l40 -40l60 10l10 -10v-70q-6 -30 -80 -30h-110l-60 10l-10 -10l-50 10h-240l-110 10l-40 -10zM575 91v20q170 0 170 60 v10h20q0 -60 20 -60h130l60 10l10 -10l50 10h20l10 -10h10l-10 -50v-10l30 -30l20 20l92 -37l1 -30l-43 -43h-20q-60 0 -60 40h-10l-10 -170l10 -30l-10 -10h-50l20 100l-20 190v10q-33 0 -70 30h-30q0 -30 -20 -30h-20v30q-90 0 -90 -150l-10 -70h-10l10 -10v-20h-20v40 l-10 -10h-10v20h20v30q-79 160 -180 160zM735 281v60h20l10 -100v-10h-20zM775 761h30l30 30l-10 10h-20l-30 -30v-10zM1015 -309q6 60 30 60q0 -22 60 -70l-10 -10v-10q-80 10 -80 30zM1025 1621l10 10l40 -10v-20h-30zM1185 1601l10 10h10l10 -10v-20h-10z" />
</font>
</defs>
</svg>
